<?xml version="1.0" standalone="no"?>
<!DOCTYPE svg PUBLIC "-//W3C//DTD SVG 20010904//EN"
 "http://www.w3.org/TR/2001/REC-SVG-20010904/DTD/svg10.dtd">
<svg version="1.0" xmlns="http://www.w3.org/2000/svg"
 width="16.000000pt" height="16.000000pt" viewBox="0 0 16.000000 16.000000"
 preserveAspectRatio="xMidYMid meet">
<metadata>
Created by potrace 1.11, written by Peter Selinger 2001-2013
</metadata>
<g transform="translate(0.000000,16.000000) scale(0.002083,-0.002083)"
fill="#000000" stroke="none">
<path d="M2290 5893 c-429 -67 -757 -380 -835 -795 -14 -74 -15 -246 -13
-1468 l3 -1385 21 -55 c69 -181 173 -298 330 -372 326 -154 717 20 837 372
l22 65 5 1045 5 1045 414 -1165 c228 -641 422 -1184 432 -1208 28 -65 109
-145 182 -178 86 -40 195 -41 279 -2 73 34 147 108 180 178 13 30 209 574 434
1208 252 711 411 1145 415 1135 4 -10 7 -470 8 -1022 1 -657 5 -1021 12 -1055
16 -75 81 -203 134 -264 126 -142 328 -225 509 -208 91 8 216 52 289 100 116
77 214 214 254 356 17 62 18 136 18 1440 0 1293 -1 1380 -18 1460 -102 472
-527 802 -1002 777 -315 -17 -590 -175 -766 -441 -73 -110 -81 -132 -369 -973
-129 -376 -237 -679 -240 -675 -4 4 -116 327 -250 717 -134 391 -256 740 -271
777 -99 247 -323 456 -584 545 -128 44 -321 64 -435 46z"/>
</g>
</svg>
