<?xml version="1.0" encoding="UTF-8"?>
<svg width="947px" height="750px" viewBox="0 0 947 750" version="1.1" xmlns="http://www.w3.org/2000/svg" xmlns:xlink="http://www.w3.org/1999/xlink">
    <!-- Generator: Sketch Beta 43 (38998) - http://www.bohemiancoding.com/sketch -->
    <title>blob</title>
    <desc>Created with Sketch Beta.</desc>
    <defs>
        <linearGradient x1="77.7570618%" y1="97.0753588%" x2="20.4766697%" y2="25.1705435%" id="linearGradient-1">
            <stop stop-color="#FFEFEF" offset="0%"></stop>
            <stop stop-color="#FFF6EF" offset="38.4506537%"></stop>
            <stop stop-color="#FFFEEF" offset="100%"></stop>
        </linearGradient>
    </defs>
    <g id="Welcome" stroke="none" stroke-width="1" fill="none" fill-rule="evenodd">
        <g id="Desktop-HD-Copy" transform="translate(-267.000000, -80.000000)" fill="url(#linearGradient-1)">
            <g id="Group-6" transform="translate(-237.000000, 16.000000)">
                <path d="M1201.16616,305.638346 C1191.47772,292.832539 1180.37006,281.158829 1168.07834,270.849649 C1161.93112,265.697794 1155.46669,260.838533 1148.6413,255.889033 C1092.8432,216.749698 1013.54182,224.95329 967.054803,172.997211 C954.749416,157.957293 943.811294,142.233743 931.585208,128.01145 C919.359123,113.786423 905.839604,101.062653 888.30306,92.0195603 C789.310323,49.9433401 668.990983,55.412401 576.016947,107.36848 C570.547886,112.837541 565.078825,118.306602 556.875234,121.041132 C518.591807,151.120967 499.450094,200.342516 504.919155,249.564064 C510.388216,268.705777 518.591807,287.84749 521.326338,306.989204 C537.73352,348.007161 556.875234,383.556057 565.078825,427.308544 C570.547886,462.85744 573.282416,498.406336 578.751477,533.955232 C581.486008,561.300537 595.15866,583.176781 612.249475,604.716677 C625.922128,618.725677 643.012943,629.663798 660.787391,637.86739 C674.460044,640.60192 682.663635,646.070981 697.380878,649.699703 C713.872831,655.382057 730.033906,661.961338 744.592546,672.379899 C764.409689,685.344308 782.331801,701.223726 797.708066,719.506797 C807.82036,731.530527 819.406565,742.900705 832.288938,753.49701 C846.735463,766.390322 865.877176,777.328443 882.284359,788.266565 C885.018889,791.001096 890.48795,788.266565 893.222481,791.001096 C942.444029,821.080931 999.869169,818.3464 1049.09072,796.470157 C1106.51586,766.390322 1163.941,739.045017 1226.8352,722.637834 C1265.11862,719.903304 1300.66752,706.230651 1338.95095,703.496121 C1363.56172,692.557999 1390.90702,689.823469 1412.78327,670.681755 C1423.72139,659.743634 1431.92498,648.805512 1440.12857,637.86739 C1440.12857,629.663798 1442.8631,624.194737 1448.33216,618.725677 C1456.53576,574.973189 1445.59763,531.220702 1418.58321,494.482285 C1407.33608,478.624743 1393.58686,463.727021 1377.71018,450.037961 C1361.83076,436.351636 1343.82114,423.876708 1324.02588,412.845612 C1275.97198,386.071825 1234.35789,349.505683 1201.16616,305.638346 Z" id="blob"></path>
            </g>
        </g>
    </g>
</svg>