<?xml version="1.0" encoding="UTF-8"?>
<svg width="178px" height="88px" viewBox="0 0 178 88" version="1.1" xmlns="http://www.w3.org/2000/svg" xmlns:xlink="http://www.w3.org/1999/xlink">
    <!-- Generator: Sketch Beta 43 (38998) - http://www.bohemiancoding.com/sketch -->
    <title>client-dooap</title>
    <desc>Created with Sketch Beta.</desc>
    <defs>
        <linearGradient x1="50%" y1="11.3809772%" x2="100%" y2="100%" id="linearGradient-1">
            <stop stop-color="#B2AEFF" offset="0%"></stop>
            <stop stop-color="#FFAEFF" offset="100%"></stop>
        </linearGradient>
    </defs>
    <g id="Welcome" stroke="none" stroke-width="1" fill="none" fill-rule="evenodd">
        <g id="client-dooap" fill="url(#linearGradient-1)">
            <g id="Dooap" transform="translate(0.000000, 18.000000)">
                <path d="M154.518034,28.0232076 C154.899006,29.870004 155.161762,31.7512806 155.691497,33.5544188 C156.318835,35.6899555 157.862591,36.8828694 160.116386,37.1525091 C162.564144,37.4457144 164.626212,36.7469333 165.849842,34.5734436 C168.055954,30.6538693 168.19826,26.5246854 166.383303,22.4329584 C165.489483,20.417234 163.798951,19.249126 161.483316,19.2074521 C159.080261,19.1640419 157.248913,20.1508191 156.048876,22.24493 C155.032371,24.0190453 154.70703,25.9541506 154.518034,28.0232076 L154.518034,28.0232076 Z M144.605309,55.2099367 C144.594381,46.2443538 144.581467,37.279019 144.573271,28.3134362 C144.568801,23.3966662 144.572526,18.4798962 144.572526,13.5633743 L144.572526,12.1457192 L154.597258,12.1457192 L154.597258,15.6763376 C154.886836,15.4840922 155.012751,15.4431625 155.069127,15.3568381 C159.109815,9.19903082 170.025137,9.80330163 174.637036,16.4949311 C176.439078,19.109469 177.386045,22.0177083 177.859652,25.1159605 C177.927452,25.5592413 178.040701,25.9955764 178.13284,26.4351363 L178.13284,31.3963087 C177.76801,32.8670483 177.49979,34.3700355 177.022457,35.8033183 C173.714904,45.7308724 163.033033,48.398991 155.498279,41.2080196 C155.451837,41.1636171 155.352745,41.1742836 155.109608,41.125168 C155.109608,41.5932546 155.111595,42.0273572 155.10936,42.4612117 C155.08527,46.710704 155.060683,50.9604444 155.036096,55.2099367 L144.605309,55.2099367 Z" id="p"></path>
                <path d="M23.7159101,28.3411939 C23.6491034,28.3156439 23.582545,28.2900938 23.5157383,28.2645438 C23.3903205,27.161179 23.2999203,26.0518609 23.1253288,24.9561859 C23.0289682,24.351171 22.8345085,23.7516133 22.6099983,23.1785978 C21.6106295,20.6273149 19.7631384,19.2662172 17.3332616,19.2024661 C14.5581754,19.1292889 12.635682,20.4454879 11.6261308,22.9330198 C10.1069611,26.6759764 10.2522471,30.4496922 12.0453491,34.0713481 C13.103329,36.2081251 14.9170442,37.269568 17.3725012,37.2070572 C19.7989011,37.1450425 21.5336403,35.9613068 22.3743121,33.8059254 C23.0503265,32.0732359 23.2852676,30.1691379 23.7159101,28.3411939 M23.0947815,15.5116019 L23.0947815,0.000248058624 L33.5384832,0.000248058624 L33.5384832,44.2658134 L23.6096154,44.2658134 L23.6096154,40.8376432 C23.3453688,40.9472851 23.2174674,40.9609284 23.1556278,41.0316251 C19.0029326,45.7975754 12.5353478,46.722586 7.17367468,43.3231906 C5.09298095,42.0040149 3.47322868,40.2445351 2.43313017,38.0370614 C-0.433349545,31.9536717 -0.857534899,25.6834938 1.64461231,19.4130679 C4.25504103,12.8715139 10.5522564,9.78913748 17.1517162,11.5560591 C19.228188,12.1119584 20.2034666,12.7494691 23.0947815,15.5116019" id="d"></path>
                <path d="M130.581736,29.4374642 C128.695253,29.8390711 127.191233,30.0737346 125.739864,30.4909692 C124.08559,30.9664976 122.377922,31.4174681 120.87564,32.2196897 C118.971773,33.236234 118.87417,36.4535543 120.527699,37.7829005 C123.296328,40.0089786 128.614042,38.6069512 129.642468,35.2363307 C130.197038,33.4190532 130.271792,31.4559172 130.581736,29.4374642 M119.940594,21.9086369 L110.170175,21.9086369 C110.315461,18.0200699 111.998046,15.138869 115.343846,13.2841347 C119.028894,11.2411238 123.071569,10.9930652 127.151745,11.1684427 C128.960493,11.246085 130.790352,11.453214 132.553651,11.8528364 C137.780966,13.0378124 140.488749,16.5046798 140.514826,21.8629941 C140.539164,26.8616234 140.472109,31.8617411 140.583122,36.8581379 C140.637512,39.304244 141.004824,41.7434045 141.245229,44.3428108 C139.997757,44.3428108 138.448288,44.3430589 136.898819,44.3428108 C135.368474,44.3428108 133.832168,44.2614476 132.309521,44.3698492 C131.196407,44.4489799 130.844741,43.933266 130.743165,42.9874185 C130.692501,42.5143707 130.603094,42.0457879 130.513936,41.4608657 C126.132012,45.211016 121.216876,45.9755327 115.951811,44.7813785 C111.618564,43.7988182 109.067492,40.6276368 108.86136,36.3523464 C108.623438,31.4162278 110.600569,28.0944748 115.137465,26.7579349 C118.445515,25.7833126 121.923437,25.3856746 125.323626,24.7208775 C126.416126,24.507299 127.515333,24.3095963 128.588214,24.0188716 C129.627816,23.737077 130.290916,23.0519391 130.43496,21.9299699 C130.592167,20.707537 130.179654,19.7539997 129.178795,19.0291724 C125.874719,16.6371431 121.518127,17.9580553 119.940594,21.9086369" id="a"></path>
                <path d="M83.140826,27.4420806 C83.0742677,27.9332367 83.0707907,28.4313384 83.1346172,28.9229906 C83.4386002,31.268633 83.9844781,32.352153 84.6674463,33.9838827 C85.5667292,36.1318223 87.3841697,37.2086448 89.7884662,37.2143501 C92.2287737,37.2198074 94.0670758,36.1593568 95.0661962,33.9878516 C96.8324762,30.1496405 96.8409202,26.2176633 95.0150357,22.3960721 C94.0159153,20.3046898 92.2486419,19.2082707 89.843352,19.1946275 C87.4216708,19.1809843 85.6243468,20.2937753 84.7106595,22.4104595 C84.0088166,24.0367318 83.4266793,25.3328381 83.140826,27.4420806 M106.862175,28.2919295 C106.851993,38.1959181 99.7011911,45.2866739 89.7348221,45.2755112 C79.9097655,45.2645967 72.8059025,38.0904932 72.8289993,28.2026284 C72.8523444,18.2723455 80.0210272,11.089312 89.8863169,11.1108931 C99.734967,11.1324742 106.872357,18.3561893 106.862175,28.2919295" id="o"></path>
                <path d="M59.7018782,28.3929638 C59.5933483,28.3609642 59.8104081,28.4249633 59.7018782,28.3929638 C59.6934342,26.2680936 59.4483107,24.1846492 58.379155,22.2981634 C57.2605772,20.3236167 55.6107744,19.2108257 53.2563967,19.1934616 C50.8928299,19.1760975 49.1481565,20.2367962 48.1458075,22.2733575 C46.2089097,26.2090556 46.2123866,30.247202 48.1373636,34.1881093 C49.1439346,36.2489804 50.9333113,37.2357576 53.2767615,37.2141765 C55.6159898,37.1928434 57.443116,36.1916788 58.3617704,34.1087306 C59.1440794,32.3353595 59.7622278,30.45061 59.7018782,28.3929638 M36.2296264,28.1895557 C36.2457692,18.259769 43.409485,11.0886422 53.2904209,11.1107194 C63.1030599,11.1325486 70.306512,18.4210071 70.2849054,28.305151 C70.2630504,38.214845 63.0322796,45.3095697 52.9886731,45.2755857 C43.2602254,45.2425939 36.2134835,38.058568 36.2296264,28.1895557" id="o"></path>
            </g>
        </g>
    </g>
</svg>