<?xml version="1.0" encoding="UTF-8"?>
<svg width="83px" height="88px" viewBox="0 0 83 88" version="1.1" xmlns="http://www.w3.org/2000/svg" xmlns:xlink="http://www.w3.org/1999/xlink">
    <!-- Generator: Sketch Beta 43 (38998) - http://www.bohemiancoding.com/sketch -->
    <title>client-box</title>
    <desc>Created with Sketch Beta.</desc>
    <defs>
        <linearGradient x1="50%" y1="11.3809772%" x2="100%" y2="100%" id="linearGradient-1">
            <stop stop-color="#B2AEFF" offset="0%"></stop>
            <stop stop-color="#FFAEFF" offset="100%"></stop>
        </linearGradient>
    </defs>
    <g id="Welcome" stroke="none" stroke-width="1" fill="none" fill-rule="evenodd">
        <g id="client-box" fill="url(#linearGradient-1)">
            <g id="Box-logo" transform="translate(0.000000, 16.000000)">
                <path d="M44.4074482,40.0929282 C39.0906712,40.0929282 34.7806424,35.7430179 34.7806424,30.3777872 C34.7806424,25.0125564 39.0906712,20.6626462 44.4074482,20.6626462 C49.7242252,20.6626462 54.0348511,25.0125564 54.0348511,30.3777872 C54.0348511,35.7430179 49.7242252,40.0929282 44.4074482,40.0929282 M16.0501101,40.0929282 C10.732736,40.0929282 6.42330432,35.7430179 6.42330432,30.3777872 C6.42330432,25.0125564 10.732736,20.6626462 16.0501101,20.6626462 C21.3674842,20.6626462 25.6775129,25.0125564 25.6775129,30.3777872 C25.6775129,35.7430179 21.3674842,40.0929282 16.0501101,40.0929282 M44.4074482,14.1808641 C38.2618655,14.1808641 32.9253835,17.6679026 30.2287791,22.7866846 C27.5321748,17.6679026 22.1956928,14.1808641 16.0501101,14.1808641 C12.4381173,14.1808641 9.10498058,15.3859923 6.42330432,17.418441 L6.42330432,3.77578718 L6.42151295,3.77578718 C6.38389424,2.01690256 4.96274317,0.602684615 3.21138345,0.602684615 C1.45942662,0.602684615 0.0382755396,2.01690256 0.00185107914,3.77578718 L5.97122303e-05,3.77578718 L5.97122303e-05,30.6459282 L0.00662805755,30.6459282 C0.149340288,39.4668641 7.27480072,46.5747103 16.0501101,46.5747103 C22.1956928,46.5747103 27.5321748,43.0876718 30.2287791,37.9688897 C32.9253835,43.0876718 38.2618655,46.5747103 44.4074482,46.5747103 C53.2723259,46.5747103 60.4580957,39.3228513 60.4580957,30.3777872 C60.4580957,21.4327231 53.2723259,14.1808641 44.4074482,14.1808641" id="Fill-1"></path>
                <path d="M82.0489036,41.4775 L73.828918,30.3903205 L82.0489036,19.3019359 L82.0471122,19.3013333 C83.0640115,17.8726538 82.7696302,15.8805769 81.3687813,14.8182564 C79.9685295,13.757141 77.9902633,14.0270897 76.9136518,15.4105769 L76.9130547,15.4093718 L69.8186446,24.9798974 L62.7242345,15.4093718 L62.7230403,15.4111795 C61.6464288,14.0270897 59.6687597,13.7577436 58.2679108,14.818859 C56.8670619,15.8811795 56.5720835,17.8732564 57.5895799,19.3013333 L57.5877885,19.3019359 L65.8083712,30.3903205 L57.5877885,41.4775 L57.5895799,41.4787051 C56.5720835,42.9067821 56.8670619,44.8994615 58.2679108,45.9605769 C59.6687597,47.0222949 61.6464288,46.7529487 62.7230403,45.368859 L62.7242345,45.3700641 L69.8186446,35.800141 L76.9130547,45.3700641 L76.9136518,45.3694615 C77.9902633,46.7529487 79.9685295,47.0222949 81.3687813,45.9611795 C82.7696302,44.9000641 83.0640115,42.9073846 82.0471122,41.4787051 L82.0489036,41.4775 Z" id="Fill-4"></path>
            </g>
        </g>
    </g>
</svg>