<?xml version="1.0" encoding="UTF-8"?>
<svg width="104px" height="88px" viewBox="0 0 104 88" version="1.1" xmlns="http://www.w3.org/2000/svg" xmlns:xlink="http://www.w3.org/1999/xlink">
    <!-- Generator: Sketch Beta 43 (38998) - http://www.bohemiancoding.com/sketch -->
    <title>client-wire</title>
    <desc>Created with Sketch Beta.</desc>
    <defs>
        <linearGradient x1="50%" y1="11.3809772%" x2="100%" y2="100%" id="linearGradient-1">
            <stop stop-color="#B2AEFF" offset="0%"></stop>
            <stop stop-color="#FFAEFF" offset="100%"></stop>
        </linearGradient>
    </defs>
    <g id="Welcome" stroke="none" stroke-width="1" fill="none" fill-rule="evenodd">
        <g id="client-wire" fill="url(#linearGradient-1)">
            <g id="Wire" transform="translate(0.000000, 26.000000)">
                <path d="M21.3719069,29.2716473 C19.8056979,27.3986515 18.8575904,24.9847906 18.8575904,22.3497947 L18.8619367,5.22193045 C18.8619367,3.82516511 19.9897934,2.68928581 21.3762531,2.68928581 C22.7625576,2.68928581 23.8905696,3.82516511 23.8905696,5.22193045 L23.8862233,22.3497947 C23.8862233,24.9847906 22.9381158,27.3986515 21.3719069,29.2716473 L21.3719069,29.2716473 Z M40.2294352,22.3497947 C40.2294352,28.2852258 35.4888979,33.1137301 29.5964442,33.1137301 C27.223071,33.1137301 25.0089576,32.3207429 23.2335069,30.9970633 C25.2186651,28.669747 26.4005397,25.6516384 26.4005397,22.3497947 L26.404886,5.22193045 C26.404886,2.42886928 24.1490173,0.156484668 21.3762531,0.156484668 C18.603489,0.156484668 16.3476203,2.42886928 16.3476203,5.22193045 L16.343274,22.3497947 C16.343274,25.6516384 17.6046233,28.669747 19.5897815,30.9970633 C17.8143307,32.3207429 15.6002173,33.1137301 13.226689,33.1137301 C7.33439045,33.1137301 2.51437851,28.2852258 2.51437851,22.3497947 L2.51437851,1.4552808 L6.20895522e-05,1.4552808 L6.20895522e-05,22.3497947 C6.20895522e-05,29.6813651 5.97447403,35.6463747 13.2532322,35.6463747 C16.3392382,35.6463747 19.2011009,34.5662095 21.4513815,32.7722464 C23.7015069,34.5662095 26.4973994,35.6463747 29.5832501,35.6463747 C36.8620084,35.6463747 42.7437516,29.6813651 42.7437516,22.3497947 L42.7437516,1.4552808 L40.2294352,1.4552808 L40.2294352,22.3497947 Z" id="Fill-1"></path>
                <polygon id="Fill-4" points="50.2909851 34.97563 52.8053015 34.97563 52.8053015 1.38674931 50.2909851 1.38674931"></polygon>
                <path d="M74.817957,0.801015576 C69.8563809,0.801015576 65.4705301,3.32990421 62.8624585,7.17480401 L62.8624585,1.38679626 L60.3481421,1.38679626 L60.3481421,34.9755204 L62.8624585,34.9755204 L62.8624585,15.3785507 L62.8638555,15.3785507 C62.8638555,8.73965069 68.2263749,3.33851173 74.817957,3.33851173 L74.817957,0.801015576 Z" id="Fill-6"></path>
                <path d="M80.3811343,7.69532407 C85.8412896,2.1904254 94.5467104,1.90512532 100.344322,6.83754583 L79.5303522,27.8226734 C74.6381612,21.9773866 74.9211343,13.2002227 80.3811343,7.69532407 M81.3082866,29.6152281 L91.7123224,19.1256378 L103.905779,6.83175532 C103.633361,6.51437267 103.34837,6.20418904 103.049409,5.90276943 C96.3095881,-0.892474361 85.3430209,-0.892474361 78.6032,5.90276943 C71.8633791,12.6980132 71.8633791,23.7547607 78.6032,30.5500045 C85.3420896,37.3443092 96.3063284,37.3452482 103.04646,30.552978 L101.268525,28.7604233 C95.8082149,34.2623485 87.1048119,34.5467096 81.3082866,29.6152281" id="Fill-7"></path>
            </g>
        </g>
    </g>
</svg>