<?xml version="1.0" encoding="UTF-8"?>
<svg width="281px" height="88px" viewBox="0 0 281 88" version="1.1" xmlns="http://www.w3.org/2000/svg" xmlns:xlink="http://www.w3.org/1999/xlink">
    <!-- Generator: Sketch Beta 43 (38998) - http://www.bohemiancoding.com/sketch -->
    <title>client-starship</title>
    <desc>Created with Sketch Beta.</desc>
    <defs>
        <linearGradient x1="50%" y1="11.3809772%" x2="100%" y2="100%" id="linearGradient-1">
            <stop stop-color="#B2AEFF" offset="0%"></stop>
            <stop stop-color="#FFAEFF" offset="100%"></stop>
        </linearGradient>
    </defs>
    <g id="Welcome" stroke="none" stroke-width="1" fill="none" fill-rule="evenodd">
        <g id="client-starship" fill="url(#linearGradient-1)">
            <g id="Starship" transform="translate(0.000000, 24.000000)">
                <path d="M22.0138151,46.4941176 C20.8255375,46.2967216 19.6221546,46.1636482 18.4516754,45.8907429 C13.7537165,44.7951597 9.76476634,42.4251249 6.33037699,39.0883854 C6.26667744,39.0266263 6.21702926,38.9504179 6.08178481,38.7829692 L6.86550005,38.7829692 C12.3099381,38.7828527 17.7543761,38.7954375 23.198697,38.7792403 C29.0745121,38.7617613 33.9903844,35.1741401 35.7608572,29.6512448 C36.2102669,28.2493132 36.3667055,26.8104426 36.3634268,25.3461692 C36.3581576,22.9964101 36.4052297,20.6457188 36.3524199,18.2972415 C36.2736152,14.7977143 39.1789704,12.992484 41.6242603,13.0460863 C42.3654701,13.0624 43.1082022,13.071023 43.8483582,13.0389782 C44.2569018,13.0212661 44.4687262,13.1585345 44.6490522,13.5293221 C45.7655507,15.8252459 46.4360353,18.2479507 46.687789,20.7750633 C47.2751364,26.6714263 45.9091089,32.0857188 42.3778822,36.8746129 C38.4327255,42.2251653 33.1078412,45.3478454 26.4937436,46.2720179 C25.9759506,46.344381 25.458743,46.4200067 24.9411842,46.4941176 L22.0138151,46.4941176 Z" id="Fill-1"></path>
                <path d="M26.1121318,0 C27.2128225,0.23619944 28.3273305,0.42217591 29.4119792,0.717221289 C33.7286776,1.89180952 37.4020574,4.15195966 40.513031,7.33721457 C40.5801263,7.40596527 40.6392592,7.4822902 40.8054166,7.67444258 L40.1090541,7.67444258 C34.5283177,7.67514174 28.9474643,7.64834062 23.3669622,7.6832986 C16.00943,7.72932661 10.2641755,13.4879552 10.2263539,20.8096717 C10.2133564,23.3146443 10.2426301,25.8198499 10.2165179,28.3244728 C10.1904058,30.8246678 8.72145201,32.9425389 6.48517626,33.4261244 C5.24842139,33.6935529 3.93051985,33.5983507 2.64821512,33.6320269 C2.52749042,33.6352896 2.35196538,33.4119081 2.28323075,33.2578599 C1.1376927,30.6887978 0.327865332,28.0282622 0.107141707,25.2101826 C0.0937929038,25.0395877 0.0367677551,24.872372 0,24.7036415 L0,21.7904762 C0.114869961,20.9873748 0.190278987,20.1762331 0.350815905,19.3822207 C2.28475298,9.81608515 7.952842,3.59391373 17.3140998,0.719085714 C18.3846972,0.390364146 19.5091582,0.23550028 20.608678,0 L26.1121318,0 Z" id="Fill-3"></path>
                <path d="M156.198042,22.1422817 L156.778012,22.1422817 C158.863938,22.1422817 160.949864,22.148108 163.035673,22.137038 C163.442577,22.1349405 163.854166,22.0952049 164.254981,22.0247063 C166.137982,21.6937708 167.377079,20.2748262 167.439373,18.4025932 C167.502487,16.5048408 166.387628,15.045578 164.497133,14.601029 C164.046552,14.4951063 163.57185,14.4519915 163.107686,14.4486122 C160.983002,14.4328811 158.857966,14.4408049 156.733165,14.4429024 C156.563377,14.4431355 156.393824,14.4635276 156.198042,14.4763455 L156.198042,22.1422817 Z M148.757138,7.8245405 L149.349286,7.8245405 C153.993381,7.82465703 158.637594,7.81754891 163.281689,7.8280363 C165.504382,7.83316347 167.681408,8.12261557 169.711714,9.09118476 C173.029711,10.6740822 174.736953,13.3491836 174.929339,16.9674514 C175.156503,21.2418806 173.262378,24.3516262 169.527524,26.3984161 C169.427408,26.4531836 169.331858,26.5162245 169.193452,26.6001237 C171.391438,30.6113192 173.579003,34.6032878 175.805794,38.6670369 C175.563993,38.691857 175.401583,38.7228531 175.239172,38.7230862 C172.858518,38.7262324 170.477865,38.7148128 168.097445,38.7352049 C167.679066,38.7388173 167.482113,38.5817394 167.299211,38.227615 C165.632952,35.002275 163.940933,31.7899859 162.276431,28.5637136 C162.064606,28.1530738 161.833227,27.9716419 161.344708,27.9813136 C159.651517,28.0148733 157.957039,27.9942481 156.192655,27.9942481 L156.192655,38.6701831 L148.757138,38.6701831 L148.757138,7.8245405 Z" id="Fill-5"></path>
                <polygon id="Fill-7" points="235.286911 38.6947585 227.851745 38.6947585 227.851745 25.8670431 215.087245 25.8670431 215.087245 38.6680739 207.6577 38.6680739 207.6577 7.85657367 215.048955 7.85657367 215.048955 19.2104605 227.826219 19.2104605 227.826219 7.85738936 235.286911 7.85738936"></polygon>
                <path d="M89.3002823,13.530569 C87.4471406,14.6777734 85.6342795,15.8001578 83.80362,16.9334956 C83.6499917,16.7519471 83.5295012,16.6016278 83.400814,16.4586496 C80.8251976,13.5959404 77.5993541,12.7825846 73.9047802,13.5126239 C73.4780868,13.5968726 73.0524474,13.8076692 72.6852382,14.0488793 C71.0870118,15.098551 71.1151146,17.2947281 72.820951,18.1388468 C73.8841715,18.664848 75.0842757,18.9680502 76.2561601,19.2146205 C78.7331826,19.735844 81.2462704,20.0960278 83.6330129,20.9861746 C85.086276,21.5282564 86.4744344,22.2006149 87.5929236,23.2936345 C90.1054259,25.7490832 90.3828233,28.7439337 89.4881023,31.9200995 C88.6701954,34.8235931 86.6884836,36.8393869 83.9310191,37.9145779 C78.2333051,40.1362743 72.6282131,39.8193219 67.2779192,36.7665578 C65.3650592,35.675053 63.9114448,34.07456 62.8075925,32.1706317 C62.7023243,31.9889667 62.614152,31.7975135 62.4873384,31.5505936 C64.4191677,30.5345981 66.3225431,29.5336345 68.1793147,28.557258 C68.8515557,29.3262171 69.4268423,30.1178989 70.1337434,30.7677678 C72.2310276,32.6955841 74.7964568,33.3363639 77.5842488,33.2677297 C78.7840018,33.238132 79.9562374,33.0611281 81.029528,32.4832726 C82.2630042,31.819304 82.8019914,30.7680009 82.5682703,29.5067169 C82.3919256,28.5551606 81.772143,27.9142642 80.9160632,27.615723 C79.6909007,27.1885365 78.4297901,26.8309163 77.1569701,26.577937 C74.7684711,26.1030911 72.3585438,25.7311382 70.0819875,24.8185017 C69.7208672,24.6736592 69.3638453,24.5165813 69.013732,24.3470351 C66.1226623,22.9470844 64.372564,20.7424009 64.1794748,17.4706832 C63.9681187,13.8898205 65.2940998,11.0565925 68.4112794,9.16350118 C70.8919319,7.65692863 73.6553683,7.23661714 76.5035813,7.28147989 C79.6355149,7.33088717 82.6126492,7.9953219 85.3058287,9.67097457 C86.7115513,10.5456233 87.9087281,11.6458676 88.90579,12.9623852 C89.031784,13.1287852 89.1444292,13.305323 89.3002823,13.530569" id="Fill-9"></path>
                <path d="M203.639499,13.5242998 C201.788583,14.6704556 199.987782,15.7854987 198.145179,16.9264108 C198.024454,16.791706 197.911809,16.6677217 197.801155,16.5419895 C195.223313,13.6140253 191.971006,12.7758494 188.228424,13.5128802 C187.819412,13.5935166 187.411571,13.7904466 187.057242,14.0172074 C185.400468,15.0777161 185.43021,17.3508007 187.209816,18.1634573 C188.464955,18.7366517 189.859905,19.0529049 191.223591,19.3345497 C193.779769,19.8626483 196.362411,20.2702584 198.776905,21.3206292 C199.240132,21.5222203 199.696802,21.7447861 200.136375,21.9929878 C202.937751,23.5742539 204.314317,25.969808 204.239727,29.1779021 C204.144529,33.2668208 202.171717,36.2612052 198.459344,37.8036679 C192.535754,40.2648264 186.685349,39.8694517 181.166204,36.4746819 C179.239879,35.2898393 177.599732,33.2985161 176.837562,31.5391973 C178.737542,30.5398651 180.642205,29.5382024 182.620873,28.4976197 C182.661622,28.5724298 182.694408,28.6426954 182.73586,28.7074841 C184.902347,32.0933979 188.117067,33.3706461 192.013512,33.2619267 C193.254131,33.2273183 194.46208,33.0268925 195.544621,32.3727122 C196.737817,31.651762 197.223526,30.4627245 196.837113,29.2417587 C196.584774,28.444134 196.020963,27.8766494 195.263711,27.6228545 C194.014193,27.2042909 192.739265,26.8302404 191.44771,26.5731827 C188.963896,26.0789934 186.459005,25.6866483 184.105283,24.6964052 C182.689724,24.1008376 181.387045,23.3329273 180.36434,22.1663794 C177.259221,18.6245531 178.019985,12.5924365 181.937273,9.69348751 C183.840063,8.28537994 186.02997,7.62677154 188.350085,7.39173737 C191.64197,7.05835473 194.853997,7.39837938 197.907477,8.75323429 C200.242346,9.78915585 202.141506,11.3548074 203.639499,13.5242998" id="Fill-11"></path>
                <path d="M261.851556,22.2440793 C262.073333,22.2538676 262.245697,22.2678508 262.418294,22.2679673 C264.524595,22.2692491 266.630896,22.2748424 268.737196,22.2628401 C269.163421,22.2603931 269.594915,22.2199583 270.014466,22.1446821 C271.947232,21.7977824 273.057876,20.464951 273.090077,18.4823673 C273.124503,16.36403 272.115731,15.0102239 270.155448,14.5939908 C269.682619,14.4935449 269.189299,14.452411 268.704878,14.4487987 C266.598695,14.4333006 264.492277,14.4409914 262.385976,14.4429723 C262.216657,14.4432054 262.047338,14.4647628 261.851556,14.4782799 L261.851556,22.2440793 Z M254.42728,7.82461042 L255.020247,7.82461042 C259.584484,7.82461042 264.148838,7.82134768 268.713192,7.82659137 C270.438466,7.8284558 272.132593,8.04274824 273.774144,8.60242555 C278.708166,10.2846037 280.897956,14.4670933 280.60838,19.1889846 C280.259204,24.8814261 276.217795,28.2778272 270.743615,28.7447494 C268.089311,28.9711606 265.405265,28.8516043 262.734685,28.887611 C262.462673,28.8913398 262.190662,28.8880771 261.836685,28.8880771 L261.836685,38.6900625 L254.42728,38.6900625 L254.42728,7.82461042 Z" id="Fill-13"></path>
                <path d="M134.050785,26.2076854 C132.75923,22.1354299 131.489572,18.1323913 130.22003,14.1294691 C130.178696,14.1349459 130.137596,14.1404226 130.096378,14.1460159 C128.812551,18.1510355 127.528607,22.1561717 126.229909,26.2076854 L134.050785,26.2076854 Z M134.728647,7.82468034 C138.545351,18.1132809 142.34812,28.3643599 146.177587,38.6876854 C145.912016,38.7032999 145.725836,38.7236921 145.539538,38.7238086 C143.197994,38.7260226 140.856333,38.7092428 138.515257,38.7382579 C138.024162,38.7444338 137.845592,38.5641672 137.710231,38.1285907 C137.140682,36.2955106 136.525115,34.4766467 135.950999,32.6449649 C135.834256,32.2725459 135.677466,32.1314322 135.264238,32.1337627 C131.869193,32.1528731 128.473913,32.1549705 125.078985,32.1322478 C124.629575,32.1292182 124.47864,32.3041246 124.358618,32.6856327 C123.776774,34.5352596 123.170106,36.3771957 122.575265,38.2227442 C122.483579,38.5073022 122.406765,38.7372092 122.00431,38.7338299 C119.565461,38.7139039 117.126377,38.7228764 114.68741,38.7201963 C114.61165,38.7201963 114.53589,38.6988719 114.379568,38.6753336 C114.443619,38.4587106 114.488935,38.2628294 114.558606,38.0759207 C118.243344,28.18957 121.933585,18.3052002 125.605443,8.41407193 C125.774996,7.95752067 125.985532,7.8079005 126.473583,7.81244504 C129.204116,7.83784784 131.935117,7.82468034 134.728647,7.82468034 L134.728647,7.82468034 Z" id="Fill-16"></path>
                <polygon id="Fill-18" points="108.534795 14.4293387 108.534795 38.6918104 101.12012 38.6918104 101.12012 14.4490317 91.522331 14.4490317 91.522331 7.85665524 118.18153 7.85665524 118.18153 14.4293387"></polygon>
                <polygon id="Fill-20" points="241.232538 38.6699384 248.536324 38.6699384 248.536324 7.86170084 241.232538 7.86170084"></polygon>
            </g>
        </g>
    </g>
</svg>