<?xml version="1.0" encoding="UTF-8"?>
<svg width="255px" height="88px" viewBox="0 0 255 88" version="1.1" xmlns="http://www.w3.org/2000/svg" xmlns:xlink="http://www.w3.org/1999/xlink">
    <!-- Generator: Sketch Beta 43 (38998) - http://www.bohemiancoding.com/sketch -->
    <title>client-facebook</title>
    <desc>Created with Sketch Beta.</desc>
    <defs>
        <linearGradient x1="50%" y1="11.3809772%" x2="100%" y2="100%" id="linearGradient-1">
            <stop stop-color="#B2AEFF" offset="0%"></stop>
            <stop stop-color="#FFAEFF" offset="100%"></stop>
        </linearGradient>
    </defs>
    <g id="Welcome" stroke="none" stroke-width="1" fill="none" fill-rule="evenodd">
        <g id="client-facebook" fill="url(#linearGradient-1)">
            <g id="FB-Mark" transform="translate(0.000000, 14.000000)">
                <path d="M19.9169101,7.67030833 C16.9209539,7.67030833 16.0519562,8.99330833 16.0519562,11.9023917 L16.0519562,16.729475 L24.0468525,16.729475 L23.2477742,24.5350583 L16.0519562,24.5350583 L16.0519562,48.2113917 L6.46007834,48.2113917 L6.46007834,24.5350583 L-0.000117511521,24.5350583 L-0.000117511521,16.729475 L6.46007834,16.729475 L6.46007834,12.0336417 C6.46007834,4.166225 9.65815438,5.83333331e-05 18.5843295,5.83333331e-05 C20.5168065,5.83333331e-05 22.7806659,0.131308333 24.179053,0.329058333 L24.179053,7.67030833" id="Fill-1"></path>
                <path d="M34.3050795,33.5939333 C34.3050795,38.2897667 36.038962,41.3960167 40.4996993,41.3960167 C44.4310472,41.3960167 46.4299182,38.55285 46.4299182,34.0582667 L46.4299182,30.8826 C46.4299182,26.3839333 44.4310472,23.5407667 40.4996993,23.5407667 C36.038962,23.5407667 34.3050795,26.6511 34.3050795,31.34635 L34.3050795,33.5939333 Z M24.7126141,31.4781833 C24.7126141,22.6821 28.9089505,16.0676833 37.7023376,16.0676833 C42.4985703,16.0676833 45.4281325,18.5165167 46.8271071,21.5562667 L46.8271071,16.7291833 L56.0217961,16.7291833 L56.0217961,48.2076 L46.8271071,48.2076 L46.8271071,43.4499333 C45.4945265,46.4902667 42.4985703,48.8691 37.7023376,48.8691 C28.9089505,48.8691 24.7126141,42.2587667 24.7126141,33.4626833 L24.7126141,31.4781833 Z" id="Fill-4"></path>
                <path d="M76.0009286,16.0676833 C79.7295691,16.0676833 83.2631406,16.8604333 85.1915046,18.1840167 L83.0604332,24.9296833 C81.5956521,24.2022667 79.1995922,23.4754333 76.6672189,23.4754333 C71.4696843,23.4754333 69.2058249,26.44985 69.2058249,31.5441 L69.2058249,33.3926833 C69.2058249,38.4869333 71.4696843,41.46135 76.6672189,41.46135 C79.1995922,41.46135 81.5956521,40.7345167 83.0604332,40.0071 L85.1915046,46.75335 C83.2631406,48.0757667 79.7295691,48.8691 76.0009286,48.8691 C64.7450876,48.8691 59.613947,42.8502667 59.613947,33.1955167 L59.613947,31.7412667 C59.613947,22.0865167 64.7450876,16.0676833 76.0009286,16.0676833" id="Fill-6"></path>
                <path d="M96.0500979,29.5596583 L107.640847,29.5596583 L107.640847,28.7669083 C107.640847,25.3281583 106.24246,22.616825 102.046123,22.616825 C97.7134735,22.616825 96.0500979,25.3281583 96.0500979,29.5596583 M86.4576325,33.6599083 L86.4576325,30.8826583 C86.4576325,21.955325 91.5852477,16.0677417 102.046123,16.0677417 C111.90299,16.0677417 116.231526,22.0206583 116.231526,30.7514083 L116.231526,35.7756583 L96.0500979,35.7756583 C96.2486924,40.0771583 98.1811694,41.9916583 103.510904,41.9916583 C107.107344,41.9916583 110.905904,41.2642417 113.703266,40.0771583 L115.433036,46.621575 C112.904775,47.944575 107.707241,48.935075 103.109603,48.935075 C90.9888767,48.935075 86.4576325,42.920325 86.4576325,33.6599083" id="Fill-8"></path>
                <path d="M142.210974,31.2769917 C142.210974,26.8442417 140.477091,23.540825 135.883566,23.540825 C131.952218,23.540825 129.821146,26.318075 129.821146,30.8126583 L129.821146,34.1201583 C129.821146,38.618825 131.952218,41.396075 135.883566,41.396075 C140.477091,41.396075 142.210974,38.088575 142.210974,33.655825 L142.210974,31.2769917 Z M151.802851,33.4586583 C151.802851,42.2547417 147.540709,48.8691583 138.747321,48.8691583 C133.951089,48.8691583 130.620225,46.4862417 129.287644,43.4459083 L129.287644,48.2076583 L120.229268,48.2076583 L120.229268,0.920325 L129.821146,0.0616583333 L129.821146,21.092575 C131.220121,18.315325 134.282471,16.0677417 138.747321,16.0677417 C147.540709,16.0677417 151.802851,22.6786583 151.802851,31.4741583 L151.802851,33.4586583 Z" id="Fill-11"></path>
                <path d="M176.979518,31.0139667 C176.979518,26.8483833 175.245636,23.5408833 170.784899,23.5408833 C166.320048,23.5408833 164.589691,26.8483833 164.589691,31.0139667 L164.589691,33.92305 C164.589691,38.0886333 166.320048,41.3961333 170.784899,41.3961333 C175.245636,41.3961333 176.979518,38.0886333 176.979518,33.92305 L176.979518,31.0139667 Z M154.997813,33.26155 L154.997813,31.6754667 C154.997813,22.6163 160.191235,16.0678 170.784899,16.0678 C181.374449,16.0678 186.571396,22.6163 186.571396,31.6754667 L186.571396,33.26155 C186.571396,42.3242167 181.374449,48.8692167 170.784899,48.8692167 C160.191235,48.8692167 154.997813,42.3242167 154.997813,33.26155 L154.997813,33.26155 Z" id="Fill-13"></path>
                <path d="M211.748181,31.0139667 C211.748181,26.8483833 210.014298,23.5408833 205.553561,23.5408833 C201.088711,23.5408833 199.358354,26.8483833 199.358354,31.0139667 L199.358354,33.92305 C199.358354,38.0886333 201.088711,41.3961333 205.553561,41.3961333 C210.014298,41.3961333 211.748181,38.0886333 211.748181,33.92305 L211.748181,31.0139667 Z M189.766476,33.26155 L189.766476,31.6754667 C189.766476,22.6163 194.959897,16.0678 205.553561,16.0678 C216.143112,16.0678 221.340059,22.6163 221.340059,31.6754667 L221.340059,33.26155 C221.340059,42.3242167 216.143112,48.8692167 205.553561,48.8692167 C194.959897,48.8692167 189.766476,42.3242167 189.766476,33.26155 L189.766476,33.26155 Z" id="Fill-15"></path>
                <polyline id="Fill-17" points="234.524675 31.74115 243.984353 16.7290667 254.176127 16.7290667 244.249341 32.2714 254.573903 48.2074833 244.385654 48.2074833 234.524675 32.8010667 234.524675 48.2074833 224.93221 48.2074833 224.93221 0.924233333 234.524675 0.0620666667"></polyline>
            </g>
        </g>
    </g>
</svg>