<?xml version="1.0" encoding="UTF-8"?>
<svg width="281px" height="88px" viewBox="0 0 281 88" version="1.1" xmlns="http://www.w3.org/2000/svg" xmlns:xlink="http://www.w3.org/1999/xlink">
    <!-- Generator: Sketch Beta 43 (38998) - http://www.bohemiancoding.com/sketch -->
    <title>client-walmart</title>
    <desc>Created with Sketch Beta.</desc>
    <defs>
        <linearGradient x1="50%" y1="11.3809772%" x2="100%" y2="100%" id="linearGradient-1">
            <stop stop-color="#B2AEFF" offset="0%"></stop>
            <stop stop-color="#FFAEFF" offset="100%"></stop>
        </linearGradient>
    </defs>
    <g id="Welcome" stroke="none" stroke-width="1" fill="none" fill-rule="evenodd">
        <g id="client-walmart" fill-rule="nonzero" fill="url(#linearGradient-1)">
            <g id="Walmart" transform="translate(0.000000, 9.000000)">
                <path d="M250.691207,22.8591481 C252.279595,22.8591481 253.587303,22.0333056 253.763906,20.9668541 L255.332316,3.23990463 C255.332316,1.48741 253.278239,0.0490152471 250.69646,0.0490152471 C248.116776,0.0490152471 246.064808,1.48741011 246.064808,3.23990463 L247.632167,20.9668541 C247.804568,22.0333055 249.112275,22.8591481 250.69646,22.8591481 L250.691207,22.8591481" id="path2974"></path>
                <path d="M241.105172,28.3962307 C241.901996,27.0229902 241.84207,25.4795534 241.002153,24.7935102 L226.423907,14.5725063 C224.908053,13.695233 222.635323,14.7511673 221.345484,16.9869318 C220.051435,19.2196181 220.280603,21.7139473 221.792254,22.5912207 L237.934715,30.1035791 C238.943881,30.4775745 240.31992,29.7579282 241.110441,28.3857137 L241.105187,28.3962307" id="path2976"></path>
                <path d="M260.285648,28.3867398 C261.081422,29.7589543 262.450098,30.4786006 263.460315,30.1046052 L279.602776,22.5922468 C281.123883,21.7149735 281.340435,19.2206442 280.057951,16.9879579 C278.761805,14.7542455 276.484872,13.6961308 274.97322,14.5735324 L260.393912,24.7945363 C259.560299,25.4795534 259.498279,27.0240162 260.290893,28.3972568 L260.284589,28.3867398" id="path2978"></path>
                <path d="M250.691207,45.0031177 C252.279595,45.0031177 253.587303,45.8216496 253.763906,46.889127 L255.332316,64.6140244 C255.332316,66.3717775 253.278239,67.8069659 250.69646,67.8069659 C248.116776,67.8069659 246.064808,66.3717775 246.064808,64.6140244 L247.632167,46.889127 C247.804568,45.8216496 249.112275,45.0031177 250.69646,45.0031177 L250.691207,45.0031177" id="path2980"></path>
                <path d="M260.285648,39.4650091 C261.081422,38.088562 262.450098,37.3752003 263.460315,37.7534283 L279.602776,45.2605281 C281.123883,46.1389558 281.340435,48.6353371 280.057951,50.8700755 C278.761805,53.0964773 276.484872,54.1576702 274.97322,53.2814229 L260.393912,43.0699099 C259.560299,42.3796343 259.498279,40.8340172 260.290893,39.4619309 L260.284589,39.4619309" id="path2982"></path>
                <path d="M241.105172,39.462957 C241.901996,40.8341455 241.84207,42.3796343 241.002153,43.070936 L226.423907,53.282449 C224.908053,54.1586963 222.635323,53.0975033 221.345484,50.8711016 C220.051435,48.6363632 220.280603,46.1398536 221.792254,45.2615542 L237.934715,37.7544544 C238.943881,37.3762264 240.31992,38.0895881 241.110441,39.4660351 L241.105187,39.4660351" id="path2984"></path>
                <path d="M158.734053,43.0373328 C158.734053,43.5815244 158.685692,44.1426459 158.536421,44.6354067 C157.918309,46.6821213 155.798009,48.4125558 153.145782,48.4125558 C150.934021,48.4125558 149.177451,47.1570545 149.177451,44.5050983 C149.177451,40.4462983 153.647217,39.3252097 158.735096,39.3536826 L158.735096,43.0373328 L158.734053,43.0373328 L158.734053,43.0373328 Z M166.714874,35.964124 C166.714874,29.2713237 163.853458,23.3823057 154.185433,23.3823057 C149.222653,23.3823057 145.283739,24.7755543 143.134006,26.0174603 L144.708727,31.3979419 C146.673452,30.1580879 149.805027,29.1316525 152.768403,29.1316525 C157.672315,29.1180573 158.475452,31.9075044 158.475452,33.6925761 L158.475452,34.1149242 C147.785637,34.0991487 141.028431,37.7985743 141.028431,45.335045 C141.028431,49.940217 144.470112,54.2532211 150.452572,54.2532211 C154.128666,54.2532211 157.207677,52.7864816 159.050463,50.4350299 L159.232328,50.4350299 C159.232328,50.4350299 160.451742,55.5402734 167.182673,53.5870577 C166.831568,51.4636457 166.715933,49.1973563 166.715933,46.4719091 L166.715933,35.9641239 L166.714874,35.964124 Z" id="path2986"></path>
                <path d="M0.15823386,14.2677692 C0.15823386,14.2677692 7.14354799,42.8766276 8.25889237,47.5195069 C9.56030386,52.9388502 11.9055521,54.934134 18.6638323,53.5871859 L23.0253107,35.8507455 C24.1311913,31.4432165 24.8712574,28.3005515 25.5839588,23.8215837 L25.7080143,23.8215837 C26.2084066,28.3478781 26.9179641,31.4568117 27.8283137,35.865495 C27.8283137,35.865495 29.6027529,43.9178125 30.5131025,48.1457827 C31.4245108,52.3725985 33.9610874,55.0382782 40.5816457,53.5871861 L50.9750045,14.2667432 L42.5862948,14.2667432 L39.0363258,31.2677619 C38.0818333,36.2143523 37.2166852,40.0829481 36.5491532,44.6082165 L36.430359,44.6082165 C35.8238121,40.1239903 35.0511522,36.4118671 34.0819347,31.5913527 L30.3890148,14.2667432 L21.6470984,14.2667432 L17.6945185,31.154255 C16.5760303,36.2878431 15.5269003,40.430651 14.8625443,44.8045769 L14.7416648,44.8045769 C14.05944,40.6858812 13.1511755,35.4766218 12.1682919,30.5101517 C12.1682919,30.5101517 9.82198498,18.4305852 8.99677708,14.2667432 L0.158169841,14.2667432" id="path2988"></path>
                <path d="M66.8431008,43.0373328 C66.8431008,43.5815244 66.7947554,44.1426459 66.6433673,44.6354067 C66.0262981,46.6821213 63.9049399,48.4125558 61.252745,48.4125558 C59.0409839,48.4125558 57.2864989,47.1570545 57.2864989,44.5050983 C57.2864989,40.4462983 61.7552226,39.3252097 66.8441594,39.3536826 L66.8441594,43.0373328 L66.8431008,43.0373328 L66.8431008,43.0373328 Z M74.8228797,35.964124 C74.8228797,29.2713237 71.9614875,23.3823057 62.2955551,23.3823057 C57.3317003,23.3823057 53.3896429,24.7755543 51.2409842,26.0174603 L52.8136047,31.3979419 C54.7783134,30.1580879 57.9098879,29.1316525 60.8743229,29.1316525 C65.7813952,29.1180573 66.5845316,31.9075044 66.5845316,33.6925761 L66.5845316,34.1149242 C55.8905138,34.0991487 49.1364684,37.7985743 49.1364684,45.335045 C49.1364684,49.940217 52.5760483,54.2532211 58.55429,54.2532211 C62.2356609,54.2532211 65.312538,52.7864816 67.157426,50.4350299 L67.3371733,50.4350299 C67.3371733,50.4350299 68.5597308,55.5402734 75.2896196,53.5870577 C74.9374714,51.4636457 74.8228798,49.1973563 74.8228798,46.4719091 L74.8228798,35.964124 L74.8228797,35.964124 Z" id="path2990"></path>
                <polyline id="path2992" points="88.140733 45.2406484 88.140733 14.2677692 80.1504477 14.2677692 80.1504477 53.588212 88.140733 53.588212 88.140733 45.2406484"></polyline>
                <path d="M192.666223,14.2677692 L192.666223,43.2738375 C192.666223,47.2747939 193.420998,50.0748863 195.030399,51.7885192 C196.440082,53.2868097 198.756955,54.2565558 201.535323,54.2565558 C203.898456,54.2565558 206.221649,53.805863 207.318066,53.3991622 L207.215039,47.160261 C206.399295,47.3598279 205.462655,47.5206613 204.180187,47.5206613 C201.457544,47.5206613 200.547194,45.7775295 200.547194,42.1873781 L200.547194,31.0891008 L207.505191,31.0891008 L207.505191,23.5651994 L200.547194,23.5651994 L200.547194,14.2677693 L192.666239,14.2677693" id="path2994"></path>
                <path d="M172.042442,24.0494952 L172.042442,53.588212 L180.285025,53.588212 L180.285025,38.4637119 C180.285025,37.6463342 180.334429,36.9338703 180.46373,36.2824564 C181.073437,33.112601 183.497539,31.0889725 186.97916,31.0889725 C187.933669,31.0889725 188.616952,31.1929884 189.357002,31.2980303 L189.357002,23.565071 C188.735731,23.4410471 188.314192,23.3833318 187.541548,23.3833318 C184.465698,23.3833318 180.966191,25.3669443 179.497656,29.622233 L179.274793,29.622233 L179.274793,24.0494952 L172.042426,24.0494952" id="path2996"></path>
                <path d="M93.7353075,24.0494952 L93.7353075,53.588212 L101.765533,53.588212 L101.765533,36.2668091 C101.765533,35.4535356 101.861197,34.5940899 102.142913,33.8491771 C102.808327,32.1050192 104.432453,30.0625371 107.023711,30.0625371 C110.265658,30.0625371 111.779411,32.8005533 111.779411,36.7521311 L111.779411,53.5870578 L119.803333,53.5870578 L119.803333,36.0544166 C119.803333,35.2789788 119.909503,34.3438618 120.138671,33.6598708 C120.797782,31.675104 122.547006,30.0612546 124.956399,30.0612546 C128.241447,30.0612546 129.81827,32.7510465 129.81827,37.4023907 L129.81827,53.5859035 L137.847453,53.5859035 L137.847453,36.1878032 C137.847453,27.0132426 133.186358,23.3811515 127.923978,23.3811515 C125.59554,23.3811515 123.755913,23.9643331 122.091831,24.9824319 C120.694771,25.8429037 119.441721,27.0617237 118.348448,28.6640301 L118.229654,28.6640301 C116.960836,25.4804513 113.975389,23.3812798 110.084837,23.3812798 C105.086303,23.3812798 102.839862,25.9134447 101.477482,28.0609688 L101.357645,28.0609688 L101.357645,24.0474432 L93.7352754,24.0474432" id="path2998"></path>
            </g>
        </g>
    </g>
</svg>