<?xml version="1.0" encoding="UTF-8"?>
<svg width="234px" height="88px" viewBox="0 0 234 88" version="1.1" xmlns="http://www.w3.org/2000/svg" xmlns:xlink="http://www.w3.org/1999/xlink">
    <!-- Generator: Sketch Beta 43 (38998) - http://www.bohemiancoding.com/sketch -->
    <title>client-amazon</title>
    <desc>Created with Sketch Beta.</desc>
    <defs>
        <linearGradient x1="50%" y1="11.3809772%" x2="100%" y2="100%" id="linearGradient-1">
            <stop stop-color="#B2AEFF" offset="0%"></stop>
            <stop stop-color="#FFAEFF" offset="100%"></stop>
        </linearGradient>
    </defs>
    <g id="Welcome" stroke="none" stroke-width="1" fill="none" fill-rule="evenodd">
        <g id="client-amazon" fill="url(#linearGradient-1)">
            <g id="Amazon">
                <polygon id="Fill-1" points="65.029617 30.2632281 51.4318273 25.7237439 51.4318273 6.05264562 65.0461558 10.0877427"></polygon>
                <polygon id="Fill-2" points="68.5758773 10.0877427 82.1902058 6.05264562 82.1430095 25.7100245 68.5758773 30.2632281"></polygon>
                <polygon id="Fill-3" points="66.7283624 -0.000121052912 54.2051971 3.92280033 66.7465149 7.28524672 79.4169167 3.92280033"></polygon>
                <polygon id="Fill-4" points="99.3175556 30.2632281 85.7197659 25.7237439 85.7197659 6.05264562 99.3340945 10.0877427"></polygon>
                <polygon id="Fill-5" points="102.863816 10.0877427 116.478144 6.05264562 116.430948 25.7100245 102.863816 30.2632281"></polygon>
                <polygon id="Fill-6" points="101.01614 -0.000121052912 88.4929744 3.92280033 101.034292 7.28524672 113.704694 3.92280033"></polygon>
                <polygon id="Fill-7" points="0 54.4736895 13.5977897 59.0131737 13.6143286 38.8380918 0 34.8029947"></polygon>
                <polygon id="Fill-8" points="17.1439693 38.8378094 30.7582979 34.8027123 30.7111015 54.4604947 17.1439693 59.0132948"></polygon>
                <polygon id="Fill-9" points="27.9850087 32.6727056 15.2964545 28.7501877 2.77328915 32.6727056 15.3146069 36.0355555"></polygon>
                <polygon id="Fill-10" points="47.8857283 59.0132948 34.2879386 54.4738105 34.2879386 34.8027123 47.9022672 38.8378094"></polygon>
                <polygon id="Fill-11" points="51.4319079 38.8378094 65.0462365 34.8027123 64.9990402 54.4604947 51.4319079 59.0132948"></polygon>
                <polygon id="Fill-12" points="62.2729474 32.6727056 49.5843931 28.7501877 37.0612278 32.6727056 49.6025456 36.0355555"></polygon>
                <polygon id="Fill-13" points="17.1438886 83.2238772 30.7420817 87.7633614 30.7582172 67.587876 17.1438886 63.552779"></polygon>
                <polygon id="Fill-14" points="34.2877773 67.5877146 34.2877773 87.7632 47.8549095 83.2108035 47.9021058 63.5526176"></polygon>
                <polygon id="Fill-15" points="45.128978 61.4227723 32.4404238 57.5002544 19.9172585 61.4227723 32.4585763 64.7856222"></polygon>
                <g id="Text" transform="translate(71.000000, 33.000000)">
                    <path d="M19.9588419,37.3745948 L18.9584409,37.3782264 C18.5913582,37.3782264 18.1234287,37.6263848 18.0084633,38.0282805 L14.9733756,48.7237088 L11.9717691,38.0516841 C11.8814103,37.7171745 11.5663647,37.3782264 11.1379672,37.3782264 L9.95321802,37.3782264 C9.52683742,37.3782264 9.21582565,37.7216131 9.12950072,38.0585437 L6.33684897,48.6200068 L3.45182147,38.0258595 C3.33766281,37.6384901 2.85843844,37.3782264 2.48207789,37.3782264 L1.04238786,37.3758053 C0.73500657,37.3758053 0.449004823,37.507753 0.295717568,37.7204026 C0.19164359,37.8648591 0.163003076,38.0282805 0.21100619,38.1707194 L4.66843821,53.9556157 C4.76686477,54.2877042 5.05407667,54.6222137 5.47480985,54.6222137 L6.90643214,54.6222137 C7.29287737,54.6222137 7.63172288,54.3401604 7.72974605,53.9402823 L10.4731845,43.4252229 L13.4586555,53.9523876 C13.5486109,54.2743884 13.8374364,54.6222137 14.2597831,54.6222137 L15.6684123,54.6222137 C16.0601016,54.6222137 16.3900726,54.3498447 16.4868856,53.9507736 L20.7773152,38.1771756 C20.8277386,38.0250524 20.7982913,37.8563854 20.6958309,37.7139464 C20.5453673,37.5045249 20.2629961,37.3745948 19.9588419,37.3745948" id="Fill-16"></path>
                    <path d="M28.6553523,37.2617331 C23.5468528,37.2617331 21.220517,41.7794278 21.220517,45.9763323 C21.220517,51.2146953 24.1128055,54.5989312 28.5887933,54.5989312 C31.7920936,54.5989312 34.2342016,52.9800503 35.2890599,50.1510437 C35.3455342,49.9892363 35.3277851,49.8137096 35.2398467,49.6563408 C35.1321422,49.4654807 34.9284315,49.3210242 34.6876092,49.2681645 L33.2697021,48.9970059 C32.8889042,48.9372865 32.4528423,49.1628484 32.3084296,49.4900948 C31.6198471,51.0617651 30.3641018,51.9535216 28.7884702,51.9999252 C27.2721365,51.9531181 25.8800462,51.0520809 25.2422905,49.7059725 C24.7239376,48.6064086 24.647294,47.5225815 24.6384194,46.420193 L34.9054384,46.4169649 C35.120444,46.4169649 35.3435173,46.3221401 35.5008384,46.1627538 C35.6323427,46.0304026 35.7041457,45.8661741 35.7025321,45.7015422 C35.6775221,41.621252 33.813065,37.2617331 28.6553523,37.2617331 M32.3366667,44.0766086 L24.774361,44.0766086 C24.948221,41.9533405 26.3261928,39.752195 28.6609997,39.667458 C31.1454634,39.7485634 32.281806,41.8996737 32.3366667,44.0766086" id="Fill-18"></path>
                    <path d="M45.268383,37.1152994 L44.9964998,37.1152994 C43.3010621,37.1152994 41.9682697,37.8198274 40.945279,39.2639886 L40.9436654,32.60971 C40.9436654,32.2360601 40.558027,31.8954979 40.1316464,31.8954979 L38.6552481,31.8954979 C38.2696096,31.8954979 37.837985,32.2009547 37.8367748,32.60971 L37.8367748,53.3823898 C37.8383883,53.7596714 38.2240268,54.1026546 38.6496006,54.1026546 L39.0836456,54.1002336 C39.4930839,54.1002336 39.7843297,53.7701626 39.8827563,53.4634953 L40.344635,51.997141 C41.4176458,53.5216007 43.0336161,54.4165852 44.7629384,54.4165852 L45.027964,54.4165852 C49.5838226,54.4165852 51.6229465,49.9844346 51.6229465,45.5914244 C51.6229465,43.4048053 51.0836173,41.3142215 50.1441278,39.8559374 C49.058612,38.1656352 47.1901211,37.1152994 45.268383,37.1152994 L45.268383,37.1152994 Z M48.3333213,46.0013902 C48.3333213,46.967796 48.1582511,51.7937721 44.7310708,51.9172461 C43.5822232,51.8732635 42.4216773,51.1977882 41.7730302,50.1991017 C41.2954193,49.4441351 41.0166786,48.3998519 40.945279,47.1082174 L40.945279,44.2691231 C41.0009465,42.0942057 42.5313987,39.7074458 44.7197759,39.6150421 C48.1586545,39.7506213 48.3333213,44.9583176 48.3333213,46.0013902 Z" id="Fill-20"></path>
                    <path d="M67.7889834,45.5340856 C66.8289211,44.844084 65.6748295,44.61368 64.5183175,44.3824689 L62.3012997,43.9712925 C60.7103393,43.7098182 59.789809,43.282905 59.789809,41.8786912 C59.789809,40.3945825 61.3275222,39.8268443 62.6316741,39.791739 C64.224248,39.83209 65.4215021,40.5426706 66.0031869,41.7923401 C66.1411454,42.0869022 66.4473166,42.285429 66.7655893,42.285429 C66.8200466,42.285429 66.8753107,42.2793763 66.9277511,42.2676746 L68.3113702,41.9618142 C68.5372673,41.9121825 68.7482389,41.7572348 68.8611874,41.5558834 C68.9511428,41.3960936 68.9709088,41.2213739 68.9168549,41.0656191 C68.0705479,38.5989643 65.9208958,37.2948209 62.6691891,37.2948209 C59.7309145,37.3016806 56.5909461,38.608245 56.5909461,42.2583938 C56.5909461,44.7532944 58.1581065,46.3374735 61.2520888,46.9681591 L63.7341321,47.4410725 C65.0963718,47.7017398 66.4896722,48.1657759 66.4896722,49.6293057 C66.4896722,51.7957493 63.9693071,52.0164691 63.207308,52.032206 C61.4981551,51.9954866 59.5627019,51.2324497 59.0927554,49.6176039 C58.9987661,49.2625153 58.5518128,49.0115323 58.1601235,49.0930413 L56.7127691,49.3916384 C56.4949398,49.4376385 56.2960698,49.5792705 56.1798942,49.7705341 C56.0826778,49.9299204 56.054844,50.1082717 56.0996201,50.2712896 C56.8466937,52.9509976 59.4328111,54.567054 63.0177159,54.5944926 L63.0975866,54.5948961 C66.2992733,54.5948961 69.7208062,53.2233666 69.7208062,49.3759016 C69.7208062,47.8098804 69.0160882,46.4097017 67.7889834,45.5340856" id="Fill-22"></path>
                    <path d="M78.7429713,37.2762998 C73.6336651,37.2762998 71.3065225,41.7939945 71.3065225,45.990899 C71.3065225,51.2288585 74.1992144,54.6126909 78.676009,54.6126909 C81.8797126,54.6126909 84.3218207,52.9934064 85.3774858,50.1652069 C85.4335566,50.0033995 85.4158076,49.8274693 85.3270623,49.669697 C85.2197613,49.4784334 85.0156472,49.3339769 84.7752282,49.2819242 L83.3553042,49.0107656 C83.0229129,48.9566953 82.5594206,49.1285905 82.3960487,49.5046615 C81.7070628,51.0751213 80.4509141,51.9668777 78.8764926,52.0152989 C77.3589488,51.9668777 75.9672619,51.0662441 75.3319265,49.7205392 C74.8123634,48.6233963 74.7353164,47.5387622 74.727652,46.4339526 L84.9934609,46.4311281 C85.2072562,46.4311281 85.428716,46.3371103 85.5860371,46.178531 C85.7179448,46.0457763 85.7897478,45.8815478 85.7881343,45.7161089 C85.7643344,41.6362222 83.9018943,37.2762998 78.7429713,37.2762998 M82.4258993,44.0919823 L74.8615767,44.0919823 C75.0342265,41.9671002 76.4126017,39.7647442 78.7470052,39.6840422 C81.2302587,39.7631301 82.3686183,41.9134334 82.4258993,44.0919823" id="Fill-24"></path>
                    <path d="M95.4825447,37.4683704 C95.2824645,37.4461774 95.0896452,37.4356862 94.9028768,37.4356862 C93.1796054,37.4356862 91.7806575,38.3726357 90.8093003,40.1630083 L90.8129308,38.5949695 C90.8113173,38.2156704 90.4325364,37.8819679 90.0025253,37.8819679 L88.7201564,37.8819679 C88.2998266,37.8819679 87.9287101,38.2168809 87.925483,38.6014257 L87.9234661,53.8302856 C87.9234661,54.2124093 88.2945826,54.5481293 88.7181395,54.5481293 L90.2143038,54.5473223 C90.6035727,54.5473223 91.0416515,54.2418655 91.045282,53.8302856 L91.0464922,46.1523029 C91.0464922,44.8864929 91.1642813,43.932596 91.7689592,42.8043828 C92.6326119,41.1968001 93.8387406,40.4083422 95.4563245,40.3958334 C95.8617289,40.3930088 96.2179201,40.0387273 96.2179201,39.6376386 L96.2179201,38.2132494 C96.2179201,37.8404064 95.8944033,37.51316 95.4825447,37.4683704" id="Fill-26"></path>
                    <path d="M111.18997,37.1693294 L110.008448,37.1697329 C109.638542,37.1697329 109.164158,37.4356458 109.049193,37.8254362 L105.219432,49.8657623 L101.30859,37.8375415 C101.192818,37.4384704 100.717627,37.1697329 100.3453,37.1697329 L98.6583339,37.1681189 C98.3485323,37.1681189 98.0492187,37.3065227 97.8959315,37.5199793 C97.7930677,37.6628218 97.7648305,37.8246292 97.8156574,37.9759453 L103.168206,53.8584909 C103.27107,54.172825 103.54376,54.5400188 103.975385,54.5400188 L106.016929,54.5400188 C106.391676,54.5400188 106.698654,54.2845972 106.839436,53.8568769 L112.031033,37.9807874 C112.08307,37.8302783 112.055237,37.6676639 111.952776,37.5244179 C111.798682,37.3089438 111.499369,37.1693294 111.18997,37.1693294" id="Fill-28"></path>
                    <path d="M115.071567,31.0642679 C113.983227,31.0642679 113.098598,31.9519892 113.098598,33.0438865 C113.098598,34.1357838 113.983631,35.0231016 115.071567,35.0231016 C116.16031,35.0231016 117.046149,34.1357838 117.046149,33.0438865 C117.046149,31.9519892 116.16031,31.0642679 115.071567,31.0642679" id="Fill-30"></path>
                    <path d="M115.883908,37.0725678 L114.263904,37.0709537 C113.823002,37.0709537 113.421631,37.4276563 113.421631,37.8186572 L113.413563,53.9885017 C113.413563,54.1842039 113.51441,54.3786956 113.689077,54.5227486 C113.848818,54.6538892 114.052933,54.7293456 114.258257,54.7293456 L115.889959,54.7321701 L115.891169,54.7321701 C116.338123,54.728135 116.731022,54.3811167 116.731022,53.9897123 L116.731022,37.8186572 C116.731022,37.4212002 116.334492,37.0725678 115.883908,37.0725678" id="Fill-32"></path>
                    <path d="M131.024534,48.0378634 L129.671573,48.043109 C129.294002,48.043109 128.977343,48.2698815 128.836561,48.6641104 C128.342411,50.7966592 127.22301,51.9018723 125.525959,51.950697 C122.220199,51.8526441 121.963644,47.2433528 121.963644,45.8330863 C121.963644,43.0206237 122.937018,39.9858272 125.655447,39.9055287 C127.296427,39.9559674 128.489647,41.1330053 128.847855,43.0504834 C128.915221,43.4418878 129.215745,43.7380639 129.626393,43.7893097 L131.073748,43.8034325 C131.506582,43.7566254 131.845831,43.429379 131.843008,43.0230447 C131.330706,39.5577034 128.929743,37.317821 125.721602,37.317821 L125.610671,37.3206455 L125.485217,37.317821 C120.81883,37.317821 118.729686,41.6741118 118.729686,45.9908586 C118.729686,49.9488853 120.49128,54.5706855 125.458997,54.5706855 L125.696996,54.5706855 C128.825266,54.5706855 131.186293,52.3772068 131.862774,48.8206722 C131.877699,48.6511981 131.819208,48.4817241 131.699402,48.3441272 C131.544098,48.1653724 131.296418,48.0511792 131.024534,48.0378634" id="Fill-34"></path>
                    <path d="M140.702809,37.2762998 C135.593906,37.2762998 133.267571,41.7939945 133.267571,45.990899 C133.267571,51.2288585 136.160263,54.6126909 140.636654,54.6126909 C143.839147,54.6126909 146.280045,52.994617 147.33692,50.1660139 C147.391781,50.002996 147.373629,49.8266623 147.28569,49.669697 C147.176776,49.4768193 146.978309,49.3359945 146.733856,49.2819242 L145.315949,49.0107656 C144.982347,48.9566953 144.520469,49.1285905 144.357097,49.5046615 C143.665691,51.0751213 142.409139,51.9668777 140.835524,52.0161059 C139.318383,51.9668777 137.9271,51.0662441 137.291765,49.7205392 C136.771798,48.6217823 136.694751,47.5371482 136.686683,46.4339526 L146.953299,46.4323386 C147.169111,46.4323386 147.392184,46.3371103 147.549909,46.1773205 C147.68101,46.0433552 147.751603,45.8791268 147.749182,45.7161089 C147.725383,41.6362222 145.862136,37.2762998 140.702809,37.2762998 M144.385737,44.0919823 L136.820205,44.0919823 C136.993258,41.9662932 138.371633,39.7647442 140.708053,39.6840422 C143.19171,39.7631301 144.329263,41.9134334 144.385737,44.0919823" id="Fill-36"></path>
                    <path d="M160.610508,45.5340856 C159.648832,44.843277 158.493126,44.6132765 157.339035,44.3824689 L155.122017,43.9712925 C153.53267,43.7098182 152.61214,43.282905 152.61214,41.8786912 C152.61214,39.9640376 154.987689,39.8042478 155.451181,39.791739 C157.044965,39.83209 158.242623,40.5426706 158.823097,41.7931471 C158.962266,42.0877092 159.269244,42.285429 159.58792,42.285429 C159.642781,42.285429 159.697642,42.2793763 159.751292,42.2676746 L161.133701,41.9618142 C161.359598,41.9121825 161.570166,41.7568313 161.683115,41.5554799 C161.772667,41.3956901 161.792433,41.2213739 161.738379,41.0656191 C160.892879,38.5989643 158.742823,37.2948209 155.489503,37.2948209 C152.552439,37.3016806 149.413277,38.608245 149.413277,42.2583938 C149.413277,44.7536979 150.980034,46.3382805 154.073613,46.9681591 L156.556463,47.4410725 C157.919106,47.7017398 159.312003,48.1657759 159.312003,49.6293057 C159.312003,51.7957493 156.792041,52.0164691 156.030042,52.032206 C154.445133,51.9983112 152.4169,51.3434149 151.915893,49.6196214 C151.824324,49.2625153 151.378177,49.0119358 150.979227,49.0930413 L149.534697,49.3916384 C149.315657,49.4380421 149.11598,49.5808845 149.000208,49.7725516 C148.903798,49.9323414 148.875965,50.1094822 148.921548,50.2712896 C149.666201,52.9509976 152.251915,54.567054 155.837626,54.5944926 L155.917094,54.5948961 C159.119587,54.5948961 162.54112,53.2233666 162.54112,49.3759016 C162.54112,47.8090734 161.837209,46.4080877 160.610508,45.5340856" id="Fill-38"></path>
                    <path d="M94.7493879,5.93969557 L94.7493879,2.26775723 C94.7514048,1.71091383 95.1737515,1.33726384 95.681213,1.33766735 L112.126919,1.33726384 C112.651726,1.33726384 113.075283,1.71979104 113.075283,2.26372213 L113.075283,5.41271189 C113.070039,5.93969557 112.625102,6.62889015 111.83648,7.72320848 L103.318549,19.8894297 C106.47909,19.8143769 109.825189,20.2880973 112.697308,21.9029431 C113.345956,22.2673124 113.518605,22.8076119 113.571449,23.3349991 L113.571449,27.2530783 C113.571449,27.7933778 112.980487,28.4176073 112.36048,28.0923785 C107.29837,25.4393022 100.580354,25.1495822 94.9817391,28.1230453 C94.4105424,28.4280986 93.8115119,27.8135533 93.8115119,27.2732538 L93.8115119,23.5500697 C93.8115119,22.9561035 93.8236135,21.9356274 94.4230474,21.0269235 L104.293536,6.86453982 L95.700979,6.86252227 C95.1749617,6.86252227 94.7546319,6.48846877 94.7493879,5.93969557" id="Fill-40"></path>
                    <path d="M34.7606223,28.8650593 L29.7561968,28.8650593 C29.2806029,28.833989 28.8998051,28.4752689 28.8622901,28.0176889 L28.8655172,2.33026088 C28.8655172,1.81618951 29.298352,1.40582014 29.8308235,1.40582014 L34.4903527,1.40339908 C34.9784516,1.43043423 35.3685273,1.7988386 35.4020084,2.26569933 L35.4020084,5.62209308 L35.4947876,5.62209308 C36.7081772,2.37706801 38.9965946,0.865924152 42.0784752,0.865924152 C45.2075521,0.865924152 47.1692256,2.37706801 48.5705938,5.62209308 C49.7860004,2.37706801 52.5403303,0.865924152 55.4850592,0.865924152 C57.5867081,0.865924152 59.8727052,1.72943493 61.27367,3.67435172 C62.8618066,5.83797077 62.534256,8.97082014 62.534256,11.728809 L62.5314323,27.939408 C62.5314323,28.4522688 62.0990009,28.8650593 61.5673361,28.8650593 L56.5701716,28.8650593 C56.0671474,28.833989 55.6710208,28.4324969 55.6710208,27.941829 L55.6710208,14.3229729 C55.6710208,13.2427774 55.7633966,10.5388589 55.530642,9.51273368 C55.155895,7.78127352 54.0344777,7.29786889 52.5887368,7.29786889 C51.3729269,7.29786889 50.1115341,8.1085199 49.5976184,9.40297904 C49.0845095,10.7022803 49.1317058,12.8642853 49.1317058,14.3229729 L49.1317058,27.939408 C49.1317058,28.4522688 48.6996778,28.8650593 48.1668029,28.8650593 L43.1688316,28.8650593 C42.6678243,28.833989 42.2712944,28.4324969 42.2712944,27.941829 L42.2644368,14.3229729 C42.2644368,11.458054 42.7331731,7.24339508 39.1841698,7.24339508 C35.5879701,7.24339508 35.7283489,11.3507204 35.7283489,14.3229729 L35.7251218,27.939408 C35.7271388,28.4522688 35.2947074,28.8650593 34.7606223,28.8650593" id="Fill-42"></path>
                    <path d="M127.234225,0.866045205 C134.659782,0.866045205 138.676715,7.24351614 138.676715,15.3484121 C138.676715,23.1882022 134.238242,29.4046728 127.234225,29.4046728 C119.947433,29.4046728 115.976889,23.0251843 115.976889,15.0796747 C115.976889,7.0800947 119.992612,0.866045205 127.234225,0.866045205 M127.279404,6.1072328 C123.588005,6.1072328 123.355654,11.1337532 123.355654,14.2702342 C123.355654,17.4046976 123.309264,24.1065903 127.234225,24.1065903 C131.111182,24.1065903 131.297144,18.7011743 131.297144,15.4045 C131.297144,13.242495 131.205171,10.6487346 130.550877,8.59446664 C129.988958,6.81014671 128.868751,6.1072328 127.279404,6.1072328" id="Fill-44"></path>
                    <path d="M148.307672,28.8650593 L143.322206,28.8650593 C142.819989,28.833989 142.424266,28.4324969 142.424266,27.941829 L142.417005,2.24310278 C142.458553,1.77503152 142.874043,1.40582014 143.37626,1.40582014 L148.018847,1.40339908 C148.456522,1.42760967 148.815537,1.72499632 148.907106,2.12285689 L148.907106,6.05344495 L149.001902,6.05344495 C150.401254,2.53968242 152.364137,0.865924152 155.818748,0.865924152 C158.061179,0.865924152 160.257624,1.67455761 161.657782,3.89143994 C162.964758,5.94449733 162.964758,9.40297904 162.964758,11.8898094 L162.964758,28.0552153 C162.908687,28.5107777 162.502879,28.8650593 162.008729,28.8650593 L156.990589,28.8650593 C156.527903,28.834796 156.155576,28.4930233 156.099506,28.0552153 L156.099506,14.1070952 C156.099506,11.2962466 156.42746,7.18730723 152.970025,7.18730723 C151.756232,7.18730723 150.636832,7.99997578 150.07572,9.24197866 C149.374229,10.8088069 149.28145,12.3760386 149.28145,14.1070952 L149.28145,27.939408 C149.272979,28.4522688 148.840144,28.8650593 148.307672,28.8650593" id="Fill-46"></path>
                    <path d="M80.7034347,21.9050817 C79.9079545,23.3149446 78.6433346,24.1808765 77.2387393,24.1808765 C75.3218418,24.1808765 74.198811,22.7185573 74.198811,20.5509031 C74.198811,16.2890336 78.0221179,15.5130844 81.6405039,15.5130844 L81.6405039,16.595701 C81.6405039,18.5462669 81.6868934,20.173218 80.7034347,21.9050817 M90.551334,24.1566659 C89.6348376,22.89247 88.6602534,21.8631167 88.6602534,19.5179183 L88.6602534,11.7204967 C88.6602534,8.41575219 88.8946215,5.38256971 86.4617914,3.10637145 C84.542877,1.26515666 81.358536,0.615506027 78.9261093,0.615506027 C74.1645231,0.615506027 68.8519095,2.39377331 67.7377532,8.27976942 C67.6191573,8.90520946 68.0733716,9.23245584 68.4840201,9.32485956 L73.3319312,9.8502292 C73.7853388,9.82843967 74.1161166,9.38135092 74.2008279,8.93103408 C74.618334,6.90380131 76.3141751,5.92488676 78.2226015,5.92488676 C79.2536599,5.92488676 80.4242905,6.30337887 81.0305819,7.22418802 C81.7336864,8.25313777 81.6405039,9.66219367 81.6405039,10.8529508 L81.6405039,11.5021979 C78.7389375,11.8282338 74.9470948,12.045322 72.2322969,13.2376932 C69.0963623,14.5926788 66.897497,17.3555098 66.897497,21.4172385 C66.897497,26.6176716 70.1730036,29.2182917 74.3867896,29.2182917 C77.9434573,29.2182917 79.8881885,28.378588 82.6348541,25.5802481 C83.5428794,26.8944793 83.8413861,27.5348492 85.5029393,28.9164664 C85.8768795,29.1158002 86.35207,29.0960282 86.6836545,28.7998521 L86.6973697,28.8111504 C87.6953504,27.9197974 89.5109976,26.3436885 90.5323748,25.4870374 C90.9397962,25.1529314 90.8683966,24.6126319 90.551334,24.1566659" id="Fill-48"></path>
                    <path d="M15.1156907,21.9050817 C14.320614,23.3149446 13.0547839,24.1808765 11.6526089,24.1808765 C9.73127421,24.1808765 8.60905015,22.7185573 8.60905015,20.5509031 C8.60905015,16.2890336 12.4311468,15.5130844 16.0511464,15.5130844 L16.0511464,16.595701 C16.0511464,18.5462669 16.0967292,20.173218 15.1156907,21.9050817 M24.9599596,24.1566659 C24.0462869,22.89247 23.0708959,21.8631167 23.0708959,19.5179183 L23.0708959,11.7204967 C23.0708959,8.41575219 23.3060708,5.38256971 20.8720306,3.10637145 C18.9523094,1.26515666 15.7707921,0.615506027 13.3351383,0.615506027 C8.57435883,0.615506027 3.2609385,2.39377331 2.14678219,8.27976942 C2.02939642,8.90520946 2.48401415,9.23245584 2.89345248,9.32485956 L7.74378394,9.8502292 C8.19638473,9.82843967 8.52595232,9.38135092 8.61268064,8.93103408 C9.02857317,6.90380131 10.7264312,5.92488676 12.6348575,5.92488676 C13.6630923,5.92488676 14.8341263,6.30337887 15.4424346,7.22418802 C16.1451357,8.25313777 16.0511464,9.66219367 16.0511464,10.8529508 L16.0511464,11.5021979 C13.14958,11.8282338 9.35814076,12.045322 6.64293941,13.2376932 C3.50700488,14.5926788 1.30612261,17.3555098 1.30612261,21.4172385 C1.30612261,26.6176716 4.58283938,29.2182917 8.7950118,29.2182917 C12.3532931,29.2182917 14.2992344,28.378588 17.0442864,25.5802481 C17.9535219,26.8944793 18.2512219,27.5348492 19.9123717,28.9164664 C20.2867153,29.1158002 20.7651329,29.0960282 21.0959106,28.7998521 L21.1076089,28.8111504 C22.1047828,27.9197974 23.9216402,26.3436885 24.9442275,25.4870374 C25.3504387,25.1529314 25.2786358,24.6126319 24.9599596,24.1566659" id="Fill-50"></path>
                </g>
            </g>
        </g>
    </g>
</svg>