<?xml version="1.0" encoding="UTF-8"?>
<svg width="243px" height="88px" viewBox="0 0 243 88" version="1.1" xmlns="http://www.w3.org/2000/svg" xmlns:xlink="http://www.w3.org/1999/xlink">
    <!-- Generator: Sketch Beta 43 (38998) - http://www.bohemiancoding.com/sketch -->
    <title>client-jawbone</title>
    <desc>Created with Sketch Beta.</desc>
    <defs>
        <linearGradient x1="50%" y1="11.3809772%" x2="100%" y2="100%" id="linearGradient-1">
            <stop stop-color="#B2AEFF" offset="0%"></stop>
            <stop stop-color="#FFAEFF" offset="100%"></stop>
        </linearGradient>
    </defs>
    <g id="Welcome" stroke="none" stroke-width="1" fill="none" fill-rule="evenodd">
        <g id="client-jawbone" fill-rule="nonzero" fill="url(#linearGradient-1)">
            <g id="Jawbone" transform="translate(0.000000, 29.000000)">
                <path d="M8.39148763,27.8160822 C8.39148763,32.4079629 7.94034312,33.2633496 0.739884393,37.9447073 L0.910390751,39.3548389 C10.6152102,35.0671782 12.6755292,31.8961636 12.6755292,27.2506027 L12.6755292,1.08798091 L8.3808259,1.08798091 L8.39222012,27.8160822 L8.39148763,27.8160822 Z" id="j"></path>
                <path d="M39.7815121,1.08689255 L35.390905,1.08689255 L36.1866136,3.18419909 L24.695003,33.4233167 L27.2242238,33.4233167 L31.5651034,21.1938144 L43.0957873,21.1938144 L47.7670252,33.4233167 L52.3068375,33.4233167 L39.7815121,1.08689255 L39.7815121,1.08689255 Z M32.2577979,19.3219855 L37.0995496,6.01520436 L37.2734668,6.01520436 L42.3496657,19.3219855 L32.2576573,19.3219855 L32.2577979,19.3219855 Z" id="a"></path>
                <polygon id="w" points="89.5311242 26.4002255 89.3643098 26.4002255 79.8193424 1.085834 78.5867098 1.085834 69.7770617 26.4574913 69.6173577 26.4574913 62.470178 1.085834 58.1257471 1.085834 67.7808314 33.4222582 69.4432925 33.4222582 78.4554173 8.62324418 78.6293346 8.62324418 87.8723551 33.4222582 89.5881027 33.4222582 98.9661077 1.085834 96.2379616 1.085834 89.5312647 26.4002255"></polygon>
                <path d="M123.170826,15.8575004 L123.170826,15.746696 C127.433552,14.9449969 131.010693,12.597158 131.010693,8.53497491 C131.010693,3.60666309 126.16539,1.08703418 120.680679,1.08703418 L111.050462,1.08703418 L111.050462,33.4306222 L119.995087,33.4306222 C128.357142,33.4306222 132.630529,29.4221193 132.630529,24.2754936 C132.630529,19.8088791 128.758552,16.7702945 123.170826,15.857642 L123.170826,15.8575004 Z M115.373584,3.32034145 C115.373584,3.32034145 117.860173,2.926652 120.21888,2.926652 C124.151255,2.926652 126.5668,4.698262 126.5668,8.98950836 C126.5668,13.1089573 123.803132,15.2277329 119.007556,15.2277329 L115.373584,15.2277329 L115.373584,3.32034145 L115.373584,3.32034145 Z M120.162049,31.5945825 C118.375251,31.5945825 116.130212,31.3689633 115.373584,31.2617371 L115.373584,17.0029285 L119.465803,17.0029285 C125.234697,17.0029285 128.009019,19.5726595 128.009019,24.7264489 C128.009019,28.8566324 125.479806,31.5945825 120.162049,31.5945825 L120.162049,31.5945825 Z" id="b"></path>
                <path d="M157.172487,0.748322 C165.737019,0.748322 172.866434,8.05666891 172.866434,17.2905398 C172.866434,26.5709345 165.903982,33.7683355 157.513508,33.7683355 C149.123034,33.7683355 141.993618,26.5709345 141.993618,17.2905398 C141.993618,8.05666891 148.95252,0.748322 157.172487,0.748322 M168.184542,18.1924504 C168.184542,8.16762236 162.763764,2.49845545 156.945143,2.49845545 C151.350308,2.49845545 146.668408,7.26213364 146.668408,16.3814655 C146.668408,26.3991371 152.032348,31.9501942 157.861631,31.9501942 C163.687362,31.9501942 168.184542,27.1901016 168.184542,18.1924504" id="o"></path>
                <polygon id="n" points="184.144196 33.4233167 186.769328 33.4233167 186.769328 7.597126 186.96485 7.597126 207.624879 33.4233167 208.971187 33.4233167 208.971187 1.08689255 206.346055 1.08689255 206.346055 25.155786 206.228976 25.155786 186.538714 1.08689255 181.675653 1.08689255 184.144485 4.24358691 184.144485 33.4233167"></polygon>
                <polygon id="e" points="223.035923 33.4233167 243.855804 33.4233167 244.015515 31.4512764 227.316273 31.8378169 227.316273 17.6255322 239.873561 17.6255322 239.873561 15.7572889 227.316273 15.7572889 227.316273 2.675978 243.006668 3.13408964 243.006668 1.08689255 223.035783 1.08689255 223.035783 33.4233167"></polygon>
            </g>
        </g>
    </g>
</svg>