<svg xmlns="http://www.w3.org/2000/svg" width="30px" height="30px" viewBox="0 0 30 30" version="1.1"><title>LinkedIn</title><desc>LinkedIn</desc><defs><linearGradient x1="50%" y1="11.3809772%" x2="100%" y2="100%" id="linearGradient-1"><stop stop-color="#9792FA" offset="0%"/><stop stop-color="#F683F4" offset="100%"/></linearGradient></defs><g id="Welcome" stroke="none" stroke-width="1" fill="none" fill-rule="evenodd"><g id="Desktop-HD-Copy-2" transform="translate(-1162.000000, -907.000000)" fill="url(#linearGradient-1)"><g id="Group-4" transform="translate(1162.000000, 907.000000)"><path d="M25.56375 25.5639583L21.1170833 25.5639583 21.1170833 18.6016667C21.1170833 16.940625 21.0866667 14.8052083 18.805 14.8052083 16.489375 14.8052083 16.1347917 16.6139583 16.1347917 18.4814583L16.1347917 25.5639583 11.6883333 25.5639583 11.6883333 11.2470833 15.956875 11.2470833 15.956875 13.2033333 16.0160417 13.2033333C16.6097917 12.0777083 18.06125 10.8908333 20.2260417 10.8908333 24.731875 10.8908333 25.56375 13.8560417 25.56375 17.7108333L25.56375 25.5639583ZM6.67375 9.29C5.2475 9.29 4.093125 8.13354167 4.093125 6.709375 4.093125 5.28625 5.2475 4.13020833 6.67375 4.13020833 8.09625 4.13020833 9.25229167 5.28625 9.25229167 6.709375 9.25229167 8.13354167 8.09625 9.29 6.67375 9.29L6.67375 9.29ZM4.44791667 25.5639583L8.89770833 25.5639583 8.89770833 11.2470833 4.44791667 11.2470833 4.44791667 25.5639583ZM27.7797917 0L2.214375 0C0.992708333 0 0 0.968333333 0 2.16229167L0 27.8352083C0 29.0302083 0.992708333 30 2.214375 30L27.7797917 30C29.0035417 30 30.0004167 29.0302083 30.0004167 27.8352083L30.0004167 2.16229167C30.0004167 0.968333333 29.0035417 0 27.7797917 0L27.7797917 0Z" id="linkedin"/></g></g></g></svg>