<?xml version="1.0" encoding="UTF-8"?>
<svg width="1440px" height="2484px" viewBox="0 0 1440 2484" version="1.1" xmlns="http://www.w3.org/2000/svg" xmlns:xlink="http://www.w3.org/1999/xlink">
    <!-- Generator: Sketch Beta 43 (38998) - http://www.bohemiancoding.com/sketch -->
    <title>scan</title>
    <desc>Created with Sketch Beta.</desc>
    <defs>
        <linearGradient x1="77.7570618%" y1="97.0753588%" x2="20.4766697%" y2="25.1705435%" id="linearGradient-1">
            <stop stop-color="#FFEFEF" offset="0%"></stop>
            <stop stop-color="#FFF6EF" offset="38.4506537%"></stop>
            <stop stop-color="#FFFEEF" offset="100%"></stop>
        </linearGradient>
    </defs>
    <g id="Welcome" stroke="none" stroke-width="1" fill="none" fill-rule="evenodd" stroke-linecap="round" stroke-linejoin="round">
        <g id="Desktop-HD-Copy" stroke="url(#linearGradient-1)" stroke-width="16">
            <g id="scan" transform="translate(-2665.000000, -303.000000)">
                <path d="M1034.3588,2729.1256 C1086.1118,2740.2156 1137.9538,2751.6666 1188.9618,2765.8556 C1247.3278,2782.0916 1302.4468,2809.8406 1361.6868,2822.6366 C1463.3458,2844.5946 1576.8428,2830.0456 1676.9868,2806.9376 C1783.6898,2782.3166 1888.6418,2750.6056 1996.5268,2731.0596 C2127.8668,2707.2626 2257.1728,2712.7866 2385.3768,2750.2066 C2593.2888,2810.8926 2811.8498,2986.3756 3035.7908,2893.1636 C3136.9658,2851.0516 3194.7338,2761.0716 3277.4478,2694.7156 C3356.4258,2631.3586 3462.6688,2601.8466 3562.3058,2623.4476 C3657.8608,2644.1636 3743.6218,2696.4856 3840.4658,2713.2176 C3943.2968,2730.9836 4030.8748,2695.4026 4115.1898,2638.2436 C4213.0098,2571.9296 4300.9768,2519.4956 4421.0288,2508.0466 C4536.4418,2497.0396 4652.7128,2503.2416 4768.2608,2494.4716 C4870.6698,2486.6986 4964.2178,2464.1736 5028.8338,2378.3426 C5054.0568,2344.8376 5074.9628,2307.8516 5105.0248,2278.2116 C5145.9928,2237.8176 5200.4148,2220.6096 5255.4318,2208.6416 C5368.4268,2184.0616 5476.6418,2205.0496 5589.3038,2219.2376 C5672.7488,2229.7466 5815.0338,2233.6456 5849.5528,2133.0136 C5861.9178,2096.9666 5840.9538,2060.0596 5855.1378,2023.7756 C5866.8298,1993.8686 5890.2178,1968.7586 5912.2378,1946.0636" id="Stroke-1"></path>
                <path d="M6031.2153,1636.7915 C5982.2873,1678.3195 5977.9133,1715.5265 5957.3553,1772.0565 C5937.3053,1827.1885 5877.3533,1870.0625 5829.7203,1899.9185 C5738.4533,1957.1225 5625.9443,1930.2605 5528.9773,1905.6795 C5431.3023,1880.9175 5323.4503,1848.3115 5223.7203,1881.6315 C5129.7733,1913.0205 5079.6073,2006.9715 4991.6773,2048.7045 C4892.0733,2095.9795 4768.4323,2090.6185 4660.8743,2092.2745 C4545.3443,2094.0535 4424.2963,2089.4125 4311.5563,2118.8025 C4202.3783,2147.2645 4115.6203,2224.6755 4008.2163,2255.1405 C3915.6713,2281.3915 3836.3703,2242.4635 3753.0293,2206.5285 C3659.0143,2165.9915 3570.8643,2161.1265 3472.2693,2187.7875 C3377.3553,2213.4525 3276.8433,2249.8145 3190.2413,2296.6425 C3097.6903,2346.8265 3038.8263,2430.4695 2967.6003,2504.7735 C2890.3123,2585.3995 2802.4023,2607.6985 2695.3023,2574.7785 C2575.1263,2537.8395 2467.6383,2468.7085 2347.9773,2430.0625 C2250.7243,2398.6545 2143.9893,2392.3855 2042.3713,2396.4105 C1938.2773,2400.5325 1836.3743,2419.2985 1734.9883,2442.1955 C1642.3423,2463.1185 1554.7163,2496.5555 1463.1013,2520.0605 C1365.3113,2545.1505 1273.8593,2561.0665 1174.9693,2531.7425 C1073.7513,2501.7295 975.3313,2462.7705 873.8873,2433.1325" id="Stroke-3"></path>
                <path d="M6159.6187,1367.5719 C6112.8297,1394.9949 6086.5327,1442.6599 6038.3897,1467.3279 C5980.5827,1496.9489 5922.3467,1527.5889 5863.4247,1554.8349 C5775.1647,1595.6469 5684.0067,1623.1059 5585.9057,1609.7019 C5477.6277,1594.9089 5367.9277,1537.3049 5257.1917,1548.2439 C5157.4077,1558.1009 5081.8747,1640.8679 4984.0737,1663.1009 C4751.3657,1716.0039 4505.5857,1655.7789 4273.6987,1719.1269 C4177.8527,1745.3109 4081.1507,1785.7209 3980.6087,1785.7789 C3883.5877,1785.8349 3792.2997,1753.6359 3694.4707,1768.3269 C3591.3017,1783.8189 3493.5347,1827.1979 3394.5047,1858.2779 C3299.7437,1888.0179 3201.6077,1899.2569 3105.6707,1923.5309 C3006.9217,1948.5159 2935.5737,2015.0029 2863.0207,2082.3479 C2798.8417,2141.9189 2731.4707,2203.4219 2638.6877,2203.1339 C2538.3237,2202.8229 2443.6427,2154.1009 2349.2787,2125.9159 C2252.6837,2097.0649 2161.1407,2093.4199 2061.0837,2097.2399 C1944.9507,2101.6739 1829.0827,2111.6509 1713.3597,2122.0919 C1611.2017,2131.3079 1507.4687,2140.7749 1408.0977,2167.2399 C1301.3007,2195.7359 1193.0917,2239.9579 1080.4087,2230.1279 C951.6457,2218.8949 824.2717,2159.8959 701.3867,2123.2219" id="Stroke-5"></path>
                <path d="M6290.7222,1110.6473 C6231.5922,1145.3033 6188.0152,1162.7563 6118.1302,1169.0213 C6005.1912,1179.1453 5898.7432,1189.7193 5791.6522,1228.8983 C5700.1252,1262.3823 5611.2902,1297.5053 5511.7942,1287.2633 C5412.1842,1277.0103 5319.4382,1239.9363 5218.1132,1240.5493 C5118.9032,1241.1493 5022.4692,1265.0773 4923.7452,1271.2923 C4782.3072,1280.1963 4640.3872,1274.6883 4498.8572,1281.4923 C4320.0472,1290.0883 4139.0782,1299.1223 3960.9392,1317.4563 C3754.1812,1338.7343 3573.6522,1450.7533 3369.7432,1484.0063 C3253.8482,1502.9063 3133.7092,1508.3023 3021.9672,1547.4663 C2917.1232,1584.2133 2834.6242,1660.5483 2748.3122,1727.4263 C2662.2612,1794.1023 2578.8512,1824.0143 2470.4872,1799.6133 C2370.7952,1777.1663 2272.9712,1736.6563 2169.4322,1736.4863 C2084.7172,1736.3473 2001.0482,1761.3253 1919.8332,1782.9683 C1820.6762,1809.3933 1721.9982,1829.4683 1619.4252,1836.8733 C1523.8752,1843.7713 1427.8332,1843.6223 1332.0892,1844.5853 C1245.5062,1845.4573 1164.1462,1862.2823 1081.4692,1887.1493 C993.5282,1913.5983 905.3572,1928.1373 813.9182,1910.7893 C715.7222,1892.1593 622.3362,1853.3743 528.8212,1819.3853" id="Stroke-7"></path>
                <path d="M6421.8252,853.7225 C6380.1952,878.1215 6332.4502,874.1555 6285.9852,871.5045 C6169.1872,864.8405 6052.2932,858.9835 5935.9102,846.9755 C5839.3042,837.0075 5744.9672,840.0715 5650.6672,865.0575 C5555.9232,890.1615 5465.8282,917.7565 5366.6302,916.3915 C5264.3242,914.9845 5163.5082,894.2135 5062.3952,880.9625 C4959.4592,867.4735 4858.0592,868.1825 4754.4312,868.8425 C4657.5392,869.4605 4564.2582,863.9355 4468.9142,846.0355 C4364.0432,826.3465 4264.6152,811.6275 4158.6592,833.5665 C3943.3772,878.1435 3749.6332,995.7265 3535.3342,1046.6245 C3407.7102,1076.9365 3276.0212,1090.2535 3147.5112,1116.9225 C3043.3662,1138.5345 2950.3962,1180.9785 2860.3922,1237.1785 C2773.4332,1291.4775 2687.2122,1363.3125 2586.0722,1388.8885 C2498.3222,1411.0775 2411.2382,1386.9185 2324.4892,1372.3635 C2155.7302,1344.0475 1963.1672,1369.7295 1802.4642,1426.8225 C1696.5202,1464.4615 1599.7232,1521.7645 1487.2032,1539.6655 C1352.3972,1561.1125 1217.2472,1529.4125 1083.2752,1546.3665 C969.4312,1560.7735 868.6302,1631.5515 752.7842,1631.9755 C610.2002,1632.4975 475.0182,1541.4165 347.2782,1488.7845" id="Stroke-9"></path>
                <path d="M6576.9517,592.1334 C6541.8697,611.7044 6470.7307,580.6874 6433.8687,572.4024 C6378.3257,559.9184 6322.5097,548.6904 6266.2137,540.1564 C6164.9577,524.8064 6063.3647,511.3984 5961.6337,499.6384 C5848.3267,486.5404 5733.1737,465.7884 5618.9317,477.9564 C5529.4507,487.4874 5446.1697,515.6764 5359.4777,537.2604 C5163.6297,586.0234 4953.7037,499.5724 4767.6667,443.5394 C4685.2887,418.7274 4602.7837,386.3304 4516.2087,380.4024 C4415.0457,373.4744 4313.8687,400.7894 4218.8567,432.7924 C4113.0687,468.4254 4009.6537,511.2584 3902.7927,543.6284 C3810.2577,571.6584 3716.6897,591.1524 3621.8387,609.3394 C3477.2417,637.0654 3333.5597,669.1274 3190.3297,703.1854 C3087.6367,727.6044 2996.7817,762.7534 2907.5127,820.2414 C2813.7927,880.5944 2720.9827,958.3114 2610.3707,984.8264 C2521.1077,1006.2234 2431.5977,984.1614 2342.4027,974.7024 C2225.4827,962.3034 2116.2787,993.1504 2002.6497,1016.4554 C1884.8177,1040.6224 1759.8527,1053.3674 1645.4937,1091.4544 C1527.6597,1130.6984 1426.4207,1208.1764 1302.2717,1229.9604 C1170.6377,1253.0564 1037.0557,1210.2824 906.8257,1242.8214 C787.8517,1272.5474 690.4577,1341.2254 563.2437,1309.2044 C425.7997,1274.6094 306.0797,1190.0204 169.1307,1152.2104" id="Stroke-11"></path>
                <path d="M6769.2607,309.1043 C6576.5007,233.0913 6358.1877,202.1853 6154.2037,174.3843 C6048.6417,159.9963 5942.8497,147.4403 5837.2447,133.3863 C5722.7797,118.1533 5605.3127,95.6963 5489.5547,95.9523 C5381.4877,96.1913 5289.0377,138.6033 5184.5767,155.9093 C5055.8017,177.2443 4937.6527,105.2783 4821.9157,60.9933 C4743.7587,31.0873 4663.5417,3.0853 4579.0127,1.1193 C4491.0527,-0.9267 4407.6857,22.7153 4323.2547,44.3583 C4086.3497,105.0853 3842.7577,128.1823 3604.3337,182.5193 C3453.0567,216.9963 3304.1627,260.5503 3155.0957,303.3813 C3035.8757,337.6363 2927.6607,374.1913 2824.3037,444.6043 C2734.8217,505.5653 2648.3537,578.2493 2537.1357,592.1623 C2437.3737,604.6413 2336.9897,579.7583 2236.8717,585.9983 C2124.0817,593.0283 2013.0197,636.7663 1904.9307,666.4653 C1791.5867,697.6073 1674.2977,720.9353 1565.0037,764.9713 C1441.6647,814.6663 1326.7467,895.8293 1191.9967,911.4983 C1069.3647,925.7583 951.2547,885.9653 829.9677,923.2353 C769.3247,941.8703 714.2297,974.5833 653.5827,993.0753 C585.7987,1013.7423 518.4927,1009.6453 451.3427,988.5503 C376.3697,964.9983 306.3467,928.1713 233.7617,898.5073 C157.7227,867.4323 80.8527,850.4353 -0.0003,837.7763" id="Stroke-13"></path>
            </g>
        </g>
    </g>
</svg>