<?xml version="1.0" encoding="UTF-8"?>
<svg width="567px" height="535px" viewBox="0 0 567 535" version="1.1" xmlns="http://www.w3.org/2000/svg" xmlns:xlink="http://www.w3.org/1999/xlink">
    <!-- Generator: Sketch Beta 43 (38998) - http://www.bohemiancoding.com/sketch -->
    <title>splash</title>
    <desc>Created with Sketch Beta.</desc>
    <defs>
        <linearGradient x1="69.1973915%" y1="82.7415231%" x2="20.4766697%" y2="25.1705435%" id="linearGradient-1">
            <stop stop-color="#FFEFEF" offset="0%"></stop>
            <stop stop-color="#FFF6EF" offset="38.4506537%"></stop>
            <stop stop-color="#FFFEEF" offset="100%"></stop>
        </linearGradient>
    </defs>
    <g id="Welcome" stroke="none" stroke-width="1" fill="none" fill-rule="evenodd">
        <g id="Desktop-HD-Copy" transform="translate(-556.000000, -1151.000000)" fill="url(#linearGradient-1)">
            <path d="M1092.62846,1418.0659 C1094.34846,1411.4759 1097.69046,1405.0979 1100.30246,1399.0029 C1108.17346,1380.6299 1116.42346,1362.0929 1120.50446,1342.4279 C1123.91546,1325.9949 1124.16846,1307.7759 1114.28646,1293.4059 C1100.53546,1273.4079 1073.98346,1287.3889 1058.99046,1297.6319 C1034.85746,1314.1199 1026.06746,1277.6339 1024.50746,1260.5939 C1022.36946,1237.2599 1009.13346,1140.3379 966.288461,1172.7199 C952.864461,1182.8649 947.120461,1211.0409 930.752461,1214.9459 C908.587461,1220.2339 894.980461,1181.2709 883.742461,1168.6269 C869.735461,1152.8659 846.446461,1139.7049 835.337461,1165.9309 C827.540461,1184.3369 829.135461,1211.7589 813.724461,1225.7819 C797.101461,1240.9079 783.391461,1226.5669 767.398461,1219.9029 C741.700461,1209.1939 720.035461,1221.0819 708.575461,1244.9129 C700.198461,1262.3349 699.834461,1286.3489 686.518461,1300.7239 C668.426461,1320.2529 645.713461,1306.3259 623.643461,1306.0679 C606.585461,1305.8689 588.637461,1311.3949 577.214461,1324.6479 C564.007461,1339.9709 566.310461,1360.0069 575.878461,1376.4979 C580.367461,1384.2359 584.518461,1392.4389 586.257461,1401.2849 C587.310461,1406.6399 587.637461,1412.6569 586.226461,1417.9789 C585.743461,1419.7999 584.788461,1421.6539 584.095461,1423.4219 C583.489461,1424.9689 582.869461,1426.5109 582.240461,1428.0489 C580.905461,1431.3129 579.530461,1434.5609 578.150461,1437.8069 C575.177461,1444.8009 572.177461,1451.7839 569.366461,1458.8459 C566.470461,1466.1199 563.761461,1473.4769 561.507461,1480.9769 C559.335461,1488.2029 557.571461,1495.5789 556.653461,1503.0759 C555.803461,1510.0189 555.685461,1517.1059 556.884461,1524.0169 C558.039461,1530.6719 560.470461,1537.0799 564.280461,1542.6739 C564.319461,1542.7319 564.358461,1542.7889 564.397461,1542.8459 C578.148461,1562.8429 604.700461,1548.9829 619.693461,1538.7399 C643.826461,1522.2509 652.616461,1558.7979 654.177461,1575.8379 C656.314461,1599.1719 669.550461,1696.1239 712.395461,1663.7419 C725.819461,1653.5969 731.563461,1625.4359 747.931461,1621.5309 C770.096461,1616.2429 783.703461,1655.2139 794.941461,1667.8579 C808.949461,1683.6179 832.237461,1696.7829 843.347461,1670.5569 C851.144461,1652.1509 849.548461,1624.7319 864.960461,1610.7079 C881.582461,1595.5819 895.292461,1609.9239 911.285461,1616.5889 C936.984461,1627.2969 958.648461,1615.4099 970.108461,1591.5789 C978.486461,1574.1569 978.849461,1550.1429 992.165461,1535.7679 C1010.25746,1516.2389 1032.97046,1530.1659 1055.04046,1530.4239 C1072.09846,1530.6229 1090.04746,1525.0969 1101.46946,1511.8439 C1114.67746,1496.5209 1112.37446,1476.2449 1102.80646,1459.7529 C1096.82746,1449.4489 1091.24546,1437.8829 1091.50046,1425.6869 C1091.55346,1423.1189 1091.97346,1420.5769 1092.62846,1418.0659" id="splash"></path>
        </g>
    </g>
</svg>