<?xml version="1.0" encoding="UTF-8"?>
<svg width="1440px" height="940px" viewBox="0 0 1440 940" version="1.1" xmlns="http://www.w3.org/2000/svg" xmlns:xlink="http://www.w3.org/1999/xlink">
    <!-- Generator: Sketch Beta 43 (38998) - http://www.bohemiancoding.com/sketch -->
    <title>Fill 1</title>
    <desc>Created with Sketch Beta.</desc>
    <defs>
        <linearGradient x1="129.979384%" y1="130.305851%" x2="-5.83875868%" y2="-52.9637633%" id="linearGradient-1">
            <stop stop-color="#FFEFEF" offset="0%"></stop>
            <stop stop-color="#FFF6EF" offset="49.0581907%"></stop>
            <stop stop-color="#FFFEEF" offset="100%"></stop>
        </linearGradient>
    </defs>
    <g id="Welcome" stroke="none" stroke-width="1" fill="none" fill-rule="evenodd">
        <g id="Desktop-HD-Copy" transform="translate(0.000000, -1210.000000)" fill="url(#linearGradient-1)">
            <g id="Group-6" transform="translate(-245.000000, -311.000000)">
                <path d="M1490.21138,1611.88493 C1413.56845,1581.5948 1317.66701,1605.9726 1245.10944,1634.21353 C1190.82162,1655.34729 1087.53653,1741.75815 1033.37414,1682.06319 C981.408164,1624.78888 971.532956,1563.29855 883.231619,1531.78055 C833.230843,1513.93418 781.69283,1519.45855 733.917973,1539.44285 C689.552092,1558.00118 649.610992,1585.93051 619.707434,1619.08085 C579.520377,1663.62868 562.886246,1636.08526 501.55911,1635.11534 C422.764045,1633.8689 352.803788,1669.53689 304.38944,1719.86704 C126.554518,1904.74457 383.462437,2067.96418 609.674812,2027.64062 C705.775473,2010.51033 701.854904,2047.37935 756.870762,2097.19773 C789.568401,2126.80479 835.687962,2141.83223 880.698253,2153.36799 C977.738473,2178.239 1059.19726,2188.194 1085.47048,2281.4541 C1103.35654,2344.95235 1117.0072,2412.69139 1195.00536,2442.50895 C1289.86393,2478.77126 1404.55409,2457.53019 1491.02058,2414.82313 C1657.74067,2332.48176 1811.49385,2035.14196 1525.75967,1979.08726 C1404.24664,1955.24807 1672.38746,1683.88332 1490.21138,1611.88493 Z" id="Fill-1"></path>
            </g>
        </g>
    </g>
</svg>